<?xml version="1.0" encoding="UTF-8"?><svg id="Ebene_1" xmlns="http://www.w3.org/2000/svg" viewBox="0 0 617.33 651.72"><path d="M311.24,121.17c2.5,3.37,13.13-21.11,13.96-22.53,8.65-14.88,22.05-30.79,35.7-41.3,5.69-4.38,10.83-8.2,16.4-12.6,12.99-10.26,42.49-26.15,58.46-17.6,6.94,3.71,24.29,20.83,26.95,28.05,1.2,3.26,4.05,13.58,4.24,16.63.34,5.55-5.12,7.75-6.46,11.1-2.45,6.12-2.66,16.45-5.08,21.84-2.74,6.1-7.22,13.51-10.35,19.72-4.64,9.21-9.58,18.28-13.82,27.67,1.66,1.69,11.04-12.25,12.34-13.65,19.45-20.76,67.89-58.89,95.6-63.9,11.2-2.02,39.14.97,48.42,7.72,22.73,16.53,33.79,37.81,28.38,66.07-4.98,25.98-33.75,42.09-48.75,62.25-8.55,11.49-15.61,27.18-25,38-4.14,4.78-9.76,8.03-13.98,13.02-10.11,11.97-17.3,24.88-28.12,36.88-2.38,2.63-9.41,5.67-1.13,9.34,6.21,2.75,17.21,3.32,24.45,5.55,28.29,8.7,67.32,38.48,80.97,65.03,17.39,33.84,15.34,81.7-9.67,111.7-33.5,40.17-82.02,54.24-128.45,25.42l-47.55-34.43c-1.4,1-1.54,1.69-1.46,3.35.31,6.58,2.04,14.64,2.02,21.16-.13,37.32-9.77,67.5-29.44,98.62-7.89,12.49-30.13,35.63-44.62,39.41-1.54.4-3.15-.64-4.27-.31-21.13,6.32-32.95,11.88-55.97,5.5-32.57-9.02-43.1-51.32-51.29-79.71-3.29-11.39-2.46-12.01-3.49-23.51-.83-9.29-3.35-18.96-3.98-28.02s.99-18.74.04-27.04c-.13-1.11-.32-3.21-1.57-3.45-2.07-.41-11.01,8.57-13.57,10.41-26.88,19.38-73.61,51.41-105.69,57.31-28.25,5.2-58.87,1.23-75.66-24.79-19.97-30.96-.98-80.54,10.66-112.21,2.05-5.57,4.59-12.3,8.23-16.79,13.95-17.21,21.45-32.45,40.63-47.34,4.7-3.65,33.69-20.07,33.9-22.08s-2.92-.69-3.57-.61c-24.76,3.16-72.07,9.49-94.45-.35-16.67-7.33-23.78-27.96-24.95-45.05-5.74-84.01,92.29-145.39,169.03-127.03,7.76,1.86,15.36,5.96,22.96,7.53,1.98-1.78-13.68-18.54-15.39-21.1-12.86-19.34-25.54-50.02-24.6-73.38.72-17.79,12.96-58.75,30.73-66.27,17.44-7.38,24.39-6.46,42.21-1.69,40.72,10.9,69.61,35.92,81.57,77.43,3.47,12.06,6.23,27.66,4.49,40.02ZM350.85,79.8c-9.59,12.35-24.78,35.69-31.1,50.39-2.95,6.87-9.23,31.22-13.6,34.39-1.4,1.01-4.51,1.89-6.21,1.44-6.14-1.64-.15-15.98.29-20.35,2.9-28.71-10.21-88.4-35.66-105.35-12.66-8.44-23.43-14.37-38.06-19.94-2.31-.88-5.07-3.19-7.25-3.75-4.57-1.17-24.28-1.05-28.43.63-23.29,9.39-27.44,56.92-21.9,77.71,8.44,31.65,33.73,54.51,52.3,79.7,1.65,2.23,4.35,6.84,2.55,9.54-1.46,2.19-5.9-1.46-6.54,1.47-.22,1.01,5.08,5.99,3,9.49-8.24,1.99-10.3-2.62-15.97-5.54-38.67-19.91-79.57-26.76-120.41-8.34-20.7,9.34-52.76,33.18-63.81,53.19-11.17,20.22-11.69,55.69,3.19,74.18,6.3,7.83,19.85,10.35,29.6,11.4,9.81,1.06,17.66-1.25,26.9-1.89,27.9-1.93,58.73-1.74,85.76-6.24,5.84-.97,15.75-6.14,21.27-.81,4.71,4.54-2.91,5.64-4.05,8.03-.8,1.69-.21,3.68-.7,5.3-1.56,5.18-14.62,4.3-18.85,5.15-24.17,4.82-71.4,34.97-87.45,53.55-24.57,28.44-48.86,89.97-36.81,126.83,2.48,7.58,5,10.24,10.99,15.01,36.31,28.93,64.1,17.16,100.99-1.68,18.02-9.2,66.42-36.67,76.55-52.46.89-1.39.92-3.61,1.92-5.08,3.09-4.58,14.19-8.47,17.95-3.2,2.14,3-.93,15.49-1.11,20.04-1.33,33.56.72,74.98,11.27,106.82,11.51,34.74,24.09,43.28,61.28,40.73,2.45-.17,8.44-.85,10.77-1.2,3.02-.45,4.79-3.92,8.7.19.04-4.34,4.02-2.22,5.81-3.22.33-.19,1.13-2.48,2.84-3.65,16.63-11.36,20.52-8.91,33.81-27.2,2.94-4.04,6.15-9.5,8.58-13.93l1.97.48-3.99,8.99c1.51,2.66,3.42.02,4.41-1.57,10.75-17.28,18.59-50.27,16.47-70.28-1.25-11.82-3.33-23.31-3.69-35.11-.14-4.73,1.61-10.54.75-15.96-.79-4.98-8.76-9.54-9.02-16.08-.21-5.42,2.91-4.15,4.14-6.16,2.49-4.08-.48-8.39,8.47-7.38,6.22.7,8.98,9.18,12.02,13,13.44,16.89,39.68,36.79,58.73,47.27,31.19,17.17,61.34,16.34,90.67-4.75,34.74-24.98,43.73-88.72,16.06-120.98-20.1-23.42-51.82-44.18-82.77-50.23-8.83-1.72-19.07-1.6-28-3l-2.23-1.75c-.02-1.52,14.74-7.81-1.54-14.22l-3.47,2.72c2.81-13.14,17.35-18.35,25.41-27.08,26.34-28.54,55.84-55.86,70.06-92.94,5.39-14.05,13.2-32.86,17.26-46.74,1.56-5.32,6.97-28.45,5.8-32.29-.19-.63-3.78-8.52-4.08-8.92-2-2.68-24.78-10.44-29.07-10.93-36.49-4.13-89.55,42.13-112.91,67.88-5.58,6.15-18.4,20.31-22.32,26.68-1.99,3.23-1.97,7.3-4.14,9.86-2.49,2.95-10.73,9.21-14.12,5.06-2.84-3.48,1.24-5.48,1.9-8.29.55-2.36-.15-4.62.74-7.26,1.97-5.87,13.92-18.61,17.88-25.12,8.72-14.3,18.35-36.1,24.06-51.94,7.81-21.69,8.74-44.29-12.14-58.82-9.36-6.51-16.7-7.28-27.33-3.66-18.35,6.24-42.49,22.8-54.38,38.13ZM576.23,190.16c2.53,2.09,13.64-12.92,15.46-15.03,4.9-5.67,11.03-11.34,14.57-18.43,5.26-10.56,4.53-28.28,2.88-39.93-.17-1.22-1.29-5.57-2.41-5.57l-30.5,78.97ZM578.22,357.17c.17-5.05-4.59-5.26-7.04-7.45-9.33-8.36-19.62-18.34-31.26-23.74-12.78-5.93-30.76-9.7-44.7-10.79,1.91,4.77,6.83,2.25,10.45,3.04,25.18,5.52,42.27,16.44,62.49,31.51,1.08.81,1.46,2.67,2.54,3.46,2.15,1.57,5.31,2.33,7.51,3.98ZM586.9,364.51c-.62-.56-1.83-1.02-2.66-1.34-1.38,1.66,10.39,14.75,12.98,16,.2-6.09-4.16-7.72-7.55-10.95-1.22-1.16-1.84-2.88-2.77-3.71ZM457.87,495.55c-2.71-2.05-7.3-5.26-10.64-5.37,3.85,3.05,11.25,10.66,15.52,11.97.51.16,1.63.28,1.47-.48-2.01-1.67-4.41-4.65-6.36-6.13Z"/><path d="M287.97,249.41c25.99-4.08,61.41,26.15,58.18,53.18-1.86,15.54-14.78,40.76-29.03,47.97-23.28,11.78-61.15-9.59-64.63-35.15-3.03-22.24,9.86-61.98,35.48-66ZM302.65,318.59c6.16-4.66,13.55-14.43,12.39-22.66s-11.99-24.37-20.57-25.58c-3.22-.46-9.99,1.86-12.26,4.29-.85.91-6.97,12.91-7.51,14.49-2.16,6.22-.61,16.77.83,23.24.53,2.38,2.58,9.79,4.39,10.61,8.57,2.24,15.97.73,22.73-4.39ZM284.73,331.17h15c.29,0,4.07-1.75,4.84-2.16,4.3-2.31,18.38-17.21,20.43-21.57,1.69-3.62,2.02-10.19,3.77-13.25.95-1.66,3.61-1.68,4.05-3.95.63-1.91-2.35-2.31-3.24-3.42-1.93-2.39-4.3-7.68-7.84-7.66-1.94,2.93,1.14,5.57,1.54,8.46s.27,10.08-.14,12.96c-1.38,9.77-17.7,24.89-27.67,26.33-2.75.4-11.73-.55-12.23,1.78l1.49,2.48Z"/></svg>