<?xml version="1.0" encoding="UTF-8"?><svg id="Ebene_1" xmlns="http://www.w3.org/2000/svg" viewBox="0 0 1346.43 1377.67"><path d="M718.13,32.65c-.46-.06-1.88-1.55-3.23-1.84-4.78-1.04-6.99,2.45-10.74,3.87-3.41,1.28-9.15,1.78-11.21,2.71-2.67,1.2-4.13,4.44-6.4,5.69-9.47,5.22-30.7,8.05-37.94,16.06-1.28,1.42-1.69,3.53-2.98,5.02-2.23,2.56-19.17,14.63-22.04,15.96-1.74.81-3.83.28-5.59,1.48-1.59,1.09-.1,3.14-1.26,4.59-1.54,1.93-7.05,5.75-9.14,7.95-.91.95-.91,2.88-2,4-2.66,2.72-5.9,1.86-9.38,7.62-2.83,4.71-7.88,12.56-9.81,17.19-3.33,7.97-3.57,8.29-8.81,15.19-3,3.95-12.74,14.9-13.06,19.03-.21,2.6,1.88,6.86.67,8.57-1.82,1.72-4.67.29-6.6,1.42-2.42,1.41-1.41,7.4-6.49,7.63-6.84.3-10.12-7.18-7.95-13.07.45-1.22,3.91-5.65,5.02-7,1.65-2,4.2-1.6,3.46-4.52-.13-.52-1.66-.55-2.01-1.21-9.14-17.38-25.64-31.12-36.57-48.26-13.36-20.94-22.97-39.43-43.52-55.48-39.02-30.46-66.51-33.75-115.18-26.35-42.08,6.4-77.16,26.13-96.61,65.39-15.38,31.04-6.24,78.9,7.39,109.36,6.49,14.52,13.77,17.81,23.46,28.5,16.64,18.37,31.49,33.6,49.08,50.97,18.96,18.73,35.66,39.11,54.45,57.55,19.16,18.8,38.05,38.74,56.02,58.98.88,1,5.1,6.11,5.29,6.72,3.02,9.9-8.11,14.23-16.22,13.21-10.58-1.33-25.08-8.1-35.33-10.66-15.99-4-36.02-4.59-52.63-7.37-30.99-5.17-73.06-16.31-104.12-12.89-3.85.42-7.14,2.59-10.99,3.01-14.97,1.65-28.66-2.64-43.72,3.28-4.11,1.61-6.78,4.49-10.1,5.9-41.85,17.81-68.15,27.9-100.19,61.81-4.17,4.41-8.71,10.94-12.96,15.04-1.27,1.23-3.9,1.58-4.31,2.19-2.74,4.04-3.52,5.77-7.19,10.3-11.82,14.58-34.41,37.95-39.78,55.23-1.24,4-.03,4.78,3.75,5.26l-.15,1.32c-2.82,2.81-1.3,7.92-3.79,10.96-1.7,2.08-6.08,1.07-5.13,7.2.38,2.46,2.8,2.07,3.09,3.19.89,3.44-1.12,8.05-1.05,11.75.2,10.28,12.53,35.58,19.38,43.21,21.28,23.67,67.86,42.38,99.16,45.34,35.66,3.38,71.54-1.47,106.98-5,10.34-1.03,17.42-5.31,27.77.25,5.98,3.22,3.43,7.18-.3,11.22-28.52,14.54-52.31,34.76-75.49,56.51-20.63,19.36-41.41,40.95-58.91,63.09-8.63,10.91-15.11,23.15-23.12,33.88-2.15,2.88-7.28,6.01-8.48,7.77-4.61,6.76-14.82,26.53-15.51,34.24-1.28,14.26-4.91,20.51-7.35,33.64-2.83,15.24-9.5,60.54-5.83,73.64.49,1.75,5.41,12.75,6.29,13.71,3.87,4.22,13.96,6.32,18.61,10.39,35.25,1.34,69.57-12.7,102.55-23.13,1.65-.52,3.89.1,5.56-.44,27.89-8.91,55-20.05,79.47-36.53,3.32-.64,11.65-.73,10.99,4.09-2.15,4.54-2.09,9.4-3.7,14.2-12.24,36.52-25.5,73.23-39.56,109.44-9.37,24.16-17.62,38.69-20.35,65.65-4.84,47.83,5.72,89.1,27.68,131.07,11.61,22.2,25,37.67,44.72,53.28,4.43,3.51,19.79,11.8,21.22,13.28,6,6.18,17.07,12.83,25.58,16.92,19.19,9.22,54.77,16.74,76.16,16.9,83.52.6,150.75-86.68,202.17-142.41,2.15-2.33,8.37-12.71,11.84-12.7,5.84,3.06,9.42,8.61,13.34,13.69,15.46,20.06,35.44,57.14,57.49,69.52,32.22,18.09,49.62,23.98,87.21,23.87,26.4-.08,48.57-3.01,73.14-13.86,48.89-21.58,100.65-81.68,113.25-133.75,4.74-19.6-3.34-56.29-8.19-76.69-2.94-12.37-8.09-24.7-11.54-36.46-.87-2.96.02-7.53-.66-11.34-1.66-9.26-8.87-23.7-11.68-34.32-5.66-21.35-9.81-43.24-15.35-64.65-3.52-13.58-7-30.88-12.99-43.01-3.1-6.28-7.76-8.55-6.46-16.43.78-4.74,8.31-10.86,13.23-9.4.75.22,7.86,9.66,10.24,11.82,7.96,7.22,24.36,17.97,33.83,23.17,25.66,14.08,64.39,24.95,94.13,22.84,43.73-3.1,77.47-11.22,113.46-36.54,24.65-17.34,27.02-38.41,43.19-60.81,5.07-7.02,12.89-13.29,17.67-21.33,15.13-25.38-3.01-56.23-17.41-78.2-14.2-21.66-34.39-37.19-54.33-52.67-8.13-6.31-17.31-14.2-25.76-19.5-2.15-1.35-7.09-1.52-10-2.75-4.73-2-12.09-7.95-15.05-8.95-11.34-3.85-23.33-8.7-35.05-11.95-5.18-1.44-14.71-.21-15.99-6.01-3.15-14.25,7.47-16.07,16.77-21.82,6.58-4.07,11.73-6.41,18.68-10.29,55.01-30.76,125.75-97.22,168.87-144.13,31.67-34.45,62-87.44,56.18-136.26-1.31-10.95-10.7-20.1-11.58-26.51-.62-4.56,4.79-.49,1.03-7.95-4.41-8.73-5.15-6.5-11.87-10.13-8.34-4.51-11.41-7.06-17.31-13.69-6.35-7.14-14.41-10.84-21.52-16.48-1.55-1.23-2.66-4.08-3.43-4.51-.9-.5-2.61,1.09-4.61-.4-1.61-1.2-3.33-6.09-6.42-8.63-2.19-1.8-7.71-3.74-8.59-5.49-1.43-2.84,2.95-4.13-2.51-8.42-8.21-6.44-21.64-13.78-31.7-16.29-5.55-1.39-10.55-2.59-16.01-4-7.91-2.04-25.72-4.41-33.75-4.32-2.41.03-4.59,2.15-5.82,1.9-1.11-.22-1.86-2.34-4.17-2.83-4.32-.92-35.28-4.54-37.76-3.85-1.44.4-2.21,2.45-3.35,2.68-.98.2-4.47-1.93-6.51-2.2-21.22-2.83-47.05,2.27-68.12,5.57-26.7,4.18-55.77,8.65-81.75,17.25-12,3.98-21.51,14.74-34.46,14.53l9.45-7.58c10.7-10.07,28.27-19.26,43.01-23.95,23.21-7.38,48.26-10.1,72.65-14.35,30.48-5.31,49.18-9.86,80.88-7.13,8.14.7,14.37.09,21.83.38,6.77.26,18.06,4.77,26.28,5.5,4.77.43,9.5-1.2,12.79-.87,2.79.28,8.9,3.01,12.36,3.73,8.75,1.83,31.26,5.74,38.19,9.81,2.23,1.31,4.31,6.6,7.72,8.37,2.42,1.26,5.5-.67,7.74.99,1.11.82.38,2.87.59,3.1.16.18,2.55-1.05,4.67-.27,4.82,1.77,19.96,17.79,24.78,22.32,11.85,11.15,11.61,13.87,20.55,25.45,11.3,14.63,28.24,30.17,36.19,47.81,12.64,28.03,1.56,77.56-10,105.38-10.81,26.01-26.11,40.27-43.19,60.81-5.43,6.53-5.84,6.36-11.65,11.85-11.79,11.14-22.21,24.33-33.82,35.67-23.46,22.91-48.91,45.31-74.04,65.97-12.94,10.65-26.52,19.85-40.56,28.44-9.22,5.64-18.4,11.03-27.94,16.07-.96,4.21,13.19,6.47,15.56,7.43,34.19,13.85,84.67,46.3,108.44,74.51,15.97,18.96,39.16,54.4,41.89,79.14,1.19,10.75-6.87,29.84-12.69,39.1-2,3.18-5.92,6.44-7.62,9.38-4.07,7.02-6.67,16.14-11.72,23.28-1.2,1.69-3.48,2.56-3.64,2.84-.67,1.18.05,3.88-.68,5.83-24.04,64.52-114.43,86.32-176.03,86.05-24.82-.11-72.9-15.74-93.83-29.26-2.51-1.62-13.94-12.42-16.67-9.82,3.63,11.79,4.66,24,7.48,36.01,9.42,40.11,21.82,79.43,33.07,118.93,7.51,26.37,15.15,55.45,19.38,82.62,1.98,12.7-11.13,45.34-16.76,58.12-7.86,17.84-25.69,39.32-38.67,54.33-20.77,24.03-41.48,40.06-70.13,53.87-25.36,12.21-54.74,18.07-82.39,12.13l1.01,1.98c-1.57-.16-3.17.9-4.61.91-10.4.08-27.04-4.52-37.46-7.34-5.27-1.43-10.99-4.26-16.42-5.58-1.88,2.86,3.55,2.87,4.48,4.53s-2.12,2.14-3.12,1.99c-3.8-.59-14.84-5.22-18.76-7.11-19.79-9.54-38.31-30.1-51.65-47.35-7.54-9.75-14.64-23.66-22.05-32.95-9.31-11.67-12.8,1.45-19.37,8.45-1.21,1.29-3.24,1.96-4.58,3.42-7.21,7.83-42.49,50.67-49.08,51.81-1.28.22-3.09-1.01-4.83-.8-3.59.42-11.57,12.11-15.06,15.03-5.33,4.48-15.3,11.49-21.33,15.67-3.08,2.13-13.08,4.17-8.17,9.32-9.91-.12-20.41,8.19-28.76,13.7-1.4.92-1.35,3.05-4.23,2.32l1.99.99c-.59,5.3-2.33.86-5.23,1.14s-6.14,3.15-8.32,4.82l-2.86-2c-2.53.58-4.55,2.39-7.02,3.1-14.53,4.13-31.71,5.24-44.23,11.72-7.7,3.98-21.73-2.7-29.06-4.54-6.14-1.54-14.48-1.4-20.82-3.18-40.25-11.33-67.77-36.17-97.97-62.03-2.06-1.77-6.86-3.65-7.93-5.07-1.55-2.05-1.46-6.89-2.98-10.02-1.17-2.4-3.3-3.63-4.4-5.6-7.6-13.6-14.3-27.93-21.73-41.27-1.28-2.29-4.07-2.78-4.35-3.21-.36-.53,1.15-2.85.54-4.9-.73-2.45-3.75-2.72-4.25-4.9s.6-3.78.23-6.07c-.61-3.73-3.47-7.86-4.66-11.43-9.75-29.28-11.61-55.12-9.98-86.1,1.73-33.02,22.28-69.69,34.08-100.92,2.94-7.79,4.72-16.96,7.49-24.51,5.99-16.39,14.03-32.07,18.48-49.01-11.54,3.51-21.18,10.4-32.19,15.09-10.62,4.52-22.8,6.39-33.85,10.36-25.59,9.19-52.68,18.47-79.16,26.84-6.8,2.15-11.25,4.27-19.31,4.69-9.74.51-34.4-2.88-42.01-8.96-6.09-4.87-8.99-15.42-10.25-22.75-5.64-32.98,4.65-86.62,14.48-119.05,13.33-43.94,56.34-92.29,87.8-125.19,6.64-6.94,13.9-14.87,21.08-21.92,11.8-11.58,26.01-20.49,36.39-33.59-3.01-3.82-6.56.08-9.55.43-22.55,2.65-46.41,3.6-68.91,3.1-22.51-.5-46.89-1.34-64.54-17.03,6.84.73,14.25,4.34,20.74,5.75,1.15.25,6.07,1.19,6.26-.75-5.25-1.09-11.34-3.01-16.21-5.29-8.35-3.91-16.31-7.47-24.77-11.23-10.08-4.47-32.86-17.73-39.69-25.8-3.34-3.95-6.36-10.77-10.76-15.77-1.61-1.83-4.35-1.39-3.56-4.43l2,.5c.32-3.26-2.53-4.6-3.79-7.71-1.63-4.05-2-10.23-3.41-13.63-.61-1.49-2.56-1.38-2.82-2.36-.85-3.24-1.72-21.95-1.59-25.97.21-6.8,4.97-21.11,7.61-27.85,15.12-38.6,56.96-87.87,89.08-113.95,25.02-20.31,89.77-49.97,122.44-52.53,32.8-2.57,81,1.43,113.71,7.27,25.94,4.63,55.46,14.49,82.02,15.08,1.17.03,1.66.94,2.76-.87.91-4.42-8.86-11.34-11.51-14.47-14.39-16.98-28.98-27.38-43-43-26.48-29.5-52.6-58.82-80.84-86.66-13.43-13.25-20.18-15.03-28.83-33.67-15.6-33.64-24.14-72.08-16.73-109.08,5.49-27.43,36.38-60.49,59.37-75.63,30.53-20.09,90.38-28.44,125.92-20.86,41.35,8.81,85.66,56.27,100.37,94.63l33.73,44.36c6.56-.09,8.96-14.97,10.77-19.34,2.91-7.05,11.96-12.18,17.25-17.75,6.79-7.13,16.1-22.88,22.99-28.01,2.5-1.86,5.65-2.55,7.86-4.14,28.34-20.43,50.9-37.25,84.66-49.34,8.04-2.88,12.84-.18,19.35-.82,2.41-.24,5.22-3.25,7.63-4.19,7.69-3.01,16.56.52,24.48.56,40.47.23,82.84,6.01,117.85,28.09,34.48,21.75,29.27,58.24,31.67,94.33,2.06,30.95,5.11,61.99,5.99,93.01.03.96-2.81,11.76,1,10.01,2.75-2.34,5.83-13.63,8.23-14.85,5.16-2.61,5.43,2.93,1.26,4.32-.94,2.39,5.89.13,7.08,0,1.38-.16,2.91.7,3.96.57,2-.26,8.19-5.01,11.47-4.54-8.48,7.28-18.9,12.76-27.01,20.48-4.93,4.69-6.78,10.78-12.96,13.51-2.2-8.03-7.06-1.59-12.02-1-.6-.64,1.91-13.91,2.04-16.45,1.11-21.98-.17-48.88-1.03-71.05-1.22-31.49-3.64-63.55-8.52-94.48-5.88-4.89-9.7-11.27-15.99-16.01-13.39-10.1-25.77-16.09-41.7-21.3-4.98-1.63-11.11-1.85-16.09-3.91-2.61-1.07-5.61-4.09-7.45-4.55-16.48-4.19-35.09-7.4-52.76-7.32-3.87.02-8.57,1.89-12.87,1.21l-1.15,1.89,2.52,1.99c-5.19-.5-11.47.69-16.5,0ZM1314.64,416.65c5.09-4.99,8.68-12.32,11.98-18.6l-1.5-4.4-10.49,22.99ZM1280.62,456.66l-5.9,4.6c-4.27,7.04-12.81,12.43-17.64,18.36-1.98,2.43-6.5,11.39-8.73,12.77-1.04.64-2.87.15-4.27,1.21-.99.76-8.31,7.38-7.45,8.05,2,.52,2.71-.66,4.04-1.45,2.32-1.38,12-8.79,13.41-10.59,1.61-2.04,1.13-4.64,2.49-6.51,2.78-3.83,14.75-14.04,19.62-19.42,1.63-1.8,5.63-.91,4.43-7.02ZM1179.62,907.66c-1.29-1.37-23.42,13.33-26.09,15.4l-14.9,6.58c2.84-.74,6.55,1.08,9.02.56,2.09-.44,4.75-3.07,6.97-4.06,8.5-3.78,22.92-8.29,25-18.49ZM1132.63,930.66l-48.5,6.99-.49,1.99c3.51.12,2.56,2.59,3.49,5.01,2.46-1.28,5.1-3.49,7.68-4.32,4.46-1.44,17.03-4.66,21.57-5.43,5.18-.89,10.59.74,15.68-1.15l.59-3.08ZM1058.63,937.66l-39-3.99,8.71,3.77,28.8,2.22,1.48-2ZM1018.62,940.66c-7.72-1.65-14.95-6.25-22.99-6l14.73,6.75c1.97-.07,7.22,1.46,8.26-.75Z"/><path d="M726.99,540.28c24.01,15.83,28.11,30.07,32.88,57.64,1.3,7.53,2.02,10.3,1.81,18.19-.13,4.99.3,9.36-.76,14.34-1.6,7.56-14.09,30.69-19.28,36.72-3.6,4.19-14.74,9.83-17.6,13.4-4.67,5.82-.42,4.56-9.36,9.64-23.56,13.41-56.09,9.83-82.43,6.32-38.21-5.09-53.71-32.46-61.37-67.63-1.88-8.61-6.23-28.74-6.34-36.76-.06-4.5,1.88-9.41,2.12-13.95.75-14.27-1.03-28.74-.03-43.03s2.61-17.74,16.01-22.99c19.11-7.49,42.1-8.46,62.4-5.44,5.2.77,38.83,7.85,41.82,9.18,12.42,5.54,28.39,16.63,40.12,24.36ZM627.63,512.64c-.37-1.8-1.98-1.88-3.47-2.03-4.15-.43-21.78,3.17-26.59,4.49-1.73.47-12.1,4.44-12.9,5.1s-2.71,3.85-2.04,4.46l3.99.5c-1.64,1.91-4.18,1.11-6.06,2.94-3.03,2.95-7.92,32.13-4.91,34.57l2.93-.03c2.04-8.8,5.42-17.53,10.61-24.91s18.39-17.51,26.51-21.49c3.28-1.61,8.34-2.49,11.92-3.59ZM665.13,516.65c-6.79-.71-14.59.52-21.5,0-.13,2.35-.34,1.77,1.48,2,7.73,1,17.6.44,25.51.99,1.1-2.22-4.64-2.91-5.49-2.99ZM734.28,564.99c-4.57-4.79-25.37-16.76-31.97-19.52-20-8.35-68.31-16.08-87.19-4.83-8.32,4.96-11.87,13.17-17.52,20.48-6.74,8.7-9.28,6.91-10.69,20.31-7.12,67.18,34.54,121.06,104.44,93.44l19.76-12.22c3.92,1.87-1.65,10.87-.47,12,3.4.72,4.33-2.46,6.49-4,6.01-4.26,16.75-13.08,20.7-19.3,1.96-3.08,8.84-16.39,9.58-19.42,3.59-14.7-2.27-55.56-13.12-66.93Z"/><path d="M704.63,518.64c-4.92,1.68-5.32-2.5-7.23-3.33-2.47-1.07-4.94-.36-7.29-.66-3.37-.44.87-4.99,1.19-5.06,4.07-.88,10.45,6.28,13.32,9.05Z"/></svg>