<?xml version="1.0" encoding="UTF-8"?><svg id="Ebene_1" xmlns="http://www.w3.org/2000/svg" viewBox="0 0 1173.18 1263.83"><path d="M720.52,55.19c.34.59,1.93.86,2.71,2.75,1.46,3.52.23,7.02,1.09,9.93,5.09,17.09,4.37,35.81,6.91,54.09,4.81,34.57-3.58,71.76-1.15,107.14.15,2.22.87,4.27,1.05,6.46,1.94,1.65,15.08-10.86,17.07-12.42,19.99-15.61,37.07-31.31,58.26-44.74,49.71-31.51,113.28-63.43,174.14-58.83,18.59,1.41,54,10.4,69.85,20.15,18.82,11.57,27.08,61.33,23,81.67-3.41,16.99-15.07,47.35-23.15,62.85-1.6,3.06-11.62,16.64-14.15,19.85-1.94,2.46-6.21,4.06-8.06,6.94-3.11,4.83-5.73,9.85-9.41,14.59-28.41,36.67-63.85,74.02-101.63,103.38-2.69,2.09-19.49,11.69-18.93,14.05,5.64,4.35,15.25,4.54,22.51,5.5,30.84,4.09,56.6,12.35,85.16,24.84,24.96,10.92,54.36,24.32,76.67,39.33,31.65,21.29,48.4,52.59,66.87,85.13,10.59,18.66,28.91,45.21,22.5,66.93-5,16.94-16.89,22.58-31.73,29.27-34.19,15.41-71.35,28.28-108.57,33.43-5.27.73-11.02-.69-16.41,1.1-.6,4.56,4.7,5.52,7.48,8.01,64.2,57.64,137.15,118.89,130.51,214.47-1.07,15.43-6.7,28.93-13.77,42.23-15.66,29.45-44.48,49.04-75.24,60.76-17.01,6.48-51.05,2.97-69.38.41-49.28-6.86-81.31-24.02-123.27-47.73-8.76-4.95-18.06-9.21-26.84-14.14-2.8,1.86-.34,4.45-.54,7.34-1.43,20.59-5.71,52.19-13.75,71.34-2.4,5.71-12.28,13.69-16.61,20.39s-5.8,16.62-16.1,16c-7-.42-3.87-9.92-12.36-9.22.73-10.76-4.27-19.52-7.43-29.06-1.65-4.98-2.97-12.3-4.99-17.01-5.94-13.82-35.34-44.73-49-51.99-1.3-.69-3.16-2.17-4.7-1.39-1.76.9-7.99,17.05-9.03,20.04-4.77,13.65-7.84,28.06-12.25,41.75-6.33,19.62-13.76,38.52-20.16,57.84-8.95,27.01-19.94,44.41-35.2,67.84-14.96,22.97-27.27,44.62-52.68,59.28-7.48,4.31-22.17,11.78-29.99,15.01-14.72,6.07-30.28,2.48-43.7-4.66-13.52-7.19-42.75-29.18-52.4-40.6-21.55-25.5-40.52-102.6-49.51-136.49-.61-2.3.3-5.81-1.07-8.43-2.71-1.94-6.12,8-6.97,9.25-26.87,38.94-70.03,73.99-112.81,94.45-35.44,16.95-70.17,34.48-105.88,51.12-17.92,8.35-38.64,20.2-58.94,22.05-17.18,1.57-25.31-11.51-36.37-21.39-14.92-13.32-36.81-27.78-42.49-47.51-5.2-18.05-4.6-45.6-4.72-64.48-.15-24.24,9.97-45.18,20.35-66.84,28.96-60.45,63.58-117.93,92.38-178.63,2.24-8.39-2.17-7.51-6.56-11.5-22.71-20.65-45.97-26.05-68.91-43.09-50.37-37.39-97.37-97.42-65.82-162.7,14.99-31.01,37.8-46.43,68.4-60.6,25.95-12.01,51.39-16.64,79.11-22.89,2.65-.6,6.86.86,7.26-2.71.01-1.41-2.55-5.26-3.57-6.49-20.1-24.33-43.74-46.21-64.91-70.09-21.08-23.79-40.62-49.22-62.59-72.41-20.98-22.15-33.46-75.2-37.83-105.17-4.5-30.81-3.03-50.35,11.34-78.41,18.07-35.28,53.4-53.31,92.05-56.95,26.72-2.52,39.48-1.97,64.73,7.25,24.28,8.86,55.2,18.71,77.49,31.51,10.46,6.01,21.13,14.35,32.56,19.44,8.04,3.58,11.78,2.93,19.42,7.83,22.73,14.57,43.52,31.88,68.15,44.6,3.75,1.94,6.74,6.31,12.13,5.37.15-9.38-3.5-18.11-4.87-27.63-2.57-17.89-2.02-37.56-4.21-54.79-.45-3.51-2.51-7.13-2.91-11.09-2.82-27.94,4.56-70.03,22.96-91.76,29.5-34.83,67.92-53.03,113.53-53.93,19.33-.38,27.6,5.72,41.69,18.28,9.78,8.72,15,19.75,22.83,29.36,1.1,1.35.9,3.45,2.48,4.54,1.1,0,5.48-10.45,6.66-12.32,20.07-31.71,36.61-58.83,66.9-82.13,11.59-8.91,29.95-13.37,44.23-7.33.73.31,11.39,8.96,12.14,9.86,2.03,2.45,12.55,21.65,13.97,25.03,2.61,6.25.97,10.55,4.99,17.52ZM953.8,383.22c25.75-22.9,47.88-51.87,68.33-79.17,1.78-2.38,5.55-4.67,7.02-6.98,1.68-2.63,1.37-5.25,2.55-7.45,1.44-2.69,5.74-5.09,8.45-10.55,6.23-12.51,20.78-47.27,21.97-60.03,1.83-19.62-3.64-55.97-21.05-67.92-11.33-7.78-43.63-16.67-57.45-17.55-60.08-3.86-126.73,24.93-175.82,57.16-23.26,15.27-47.42,35.83-67.68,55.32-3.99,3.83-7.06,8.22-11.02,12.05-13.24-1.34-9-7.37-8.89-16.02.08-6.63-1.26-13.82-1.12-21.06,1.07-54.49,14.85-150.78-21.43-194.49-2.21-2.67-12.62-13.18-15.23-13.77-12.39-2.78-26.68,2.53-36.63,9.96-18.51,13.82-32.15,31.53-44.24,50.76-14.34,22.82-26.07,43.36-34.7,68.3-1.36,3.94-3.82,7.63-4.74,11.77-2.24-.55-1.34-1.45-1.34-2.75.03-5.3,2.03-11.81,1.28-16.69-.48-3.13-3.94-6.47-3.93-8.06.01-1.28,1.88-2.74,2.09-4.99.54-5.68-1.92-21.36-4.35-26.76-5.03-11.18-15.07-19.44-25.41-25.59-29.78-17.7-61.86-4.84-90.03,8.64-7.57,3.62-14.99,10.45-23.62,11.09l-2.89,7.92c-5.17.38-10.28,4-13.76,7.68-13.03,13.76-19.14,35.7-23.33,53.71-.54,2.31-2.31,3.73-2.7,7.3-1.84,16.75,3.05,30.46,3.98,46.01.37,6.22-1.41,11.75-1.01,18.03.9,14.36,4.6,28.9,6.26,42.72.3,2.48,1.9,5.07,1.78,7.74,5.1-.56,1.8-2.76,1.56-4.52-.42-3.15-.11-6.47-1.57-9.47,2.41-.65,2.5,1.65,3.15,3.3,5.15,13.07,2.46,21.44,1.77,34.18-.15,2.75,2.04,7.55-.58,8.37-6.12,1.91-10.97-6.7-15.44-10.27-9.47-7.56-20.99-13.45-30.66-20.28-10.61-7.49-23.62-19.33-34.56-25.5-12.16-6.85-26.29-11.43-39.21-18.79-36.92-21.05-65.74-34.06-106.72-47.28-24.25-7.82-44.29-7.97-69.18-4.66-14.13,1.88-15.98,6.33-26.9,11.1-4.3,1.88-19.67,6.83-22.49,9.97-.17.19.54,1.71.06,2.53-4.13,6.96-15.19,14.1-20.11,20.95-1.97,2.75-14.67,29.36-15.08,31.92-.64,4.06.46,8.91-.03,12.97-.6,5.03-4.07,9.49-1.02,15.47l2.97-3.99c3.01,5.82-1.72,6.55-2.01,7.69-.58,2.23-.35,19.81.09,22.74,2.79,18.92,13.21,58.99,23.12,74.88,1.11,1.77,9.3,11.12,7.78,4.23-.67-3.03-6.87-10.23-8.7-14.31-2.61-5.81-6.51-16.35-8.56-22.44-1.39-4.15-7.4-26.43-5.69-28.8.58-.09,1.26.56,1.5.99,3.64,6.53,6.38,25.7,8.97,34.03,1.7,5.44,9.82,15.99,13.07,21.93,2.99,5.48,3.09,6.04,6.73,11.27,1.52,2.19,1.65,5.51,3.15,6.85,1.68,1.51,9.42,4.07,11.07,6.93,2.1,3.63-1.3,5.11,5.17,9.83,17.43,12.75,19.4,22.5,30.9,39.1,2.4,3.46,6.29,5.09,8.97,8.03,2.29,2.51,3.23,6.44,6.45,8.57-1.67,2.37-3.64,6.33-6.08,2.99-1.47-2.01.61-3.64-.34-5.51-.82-1.62-4.2-2.28-5.06-4.02-3.48-7.03-4.37-8.76-9.96-15.04-9.59-10.76-17.74-22.19-26.86-32.65-4.8-5.51-13.21-11.61-18.24-17.26-1.26-1.41-1.75-4.46-2.96-5.04-5.61-2.69.35,7.93,1.49,9.23,1.74,1.99,5.11,3.27,7.01,5.27,4.58,4.83,9.43,13.57,14.03,18.97,14.17,16.63,27.64,34.52,41.54,50.46,16.21,18.59,35.96,33.46,52.48,51.51,1.92,2.1,4.94,8.81,6.5,9.5,1.14.5,2.74.63,2.35-1.33-.3-1.53-4.51-8.89-5.62-10.39-4.41-5.96-14.59-11.94-17.26-18.74-.85-2.16,1.03-1.28,2.1-1.1,15.93,2.71,31.15,36.08,43.39,46.62,2.08,1.79,6.18,2.3,6.56,5.53.15,1.29-4.64,3.89-4.18,7.35l-5.87.13c-.73,2.52,2.24,2.31,2.76,3.21.73,1.3.02,4.18,1.25,5.77-7.02,1.24-13.96,1.25-21.05,2.47-33.43,5.78-82.61,19.76-111.49,37.51-3.76,2.31-17.61,12.26-19.96,15.05s-5.42,9.65-7.3,12.7c-3.27,5.33-9.45,13-11,19-8.54,33.07,4.91,62.67,25.8,87.76,7.83,9.41,19.71,17.87,26.99,27.01,1.55,1.95,1.5,4.47,2.68,5.58,2.41,2.26,11.68,4.91,15.61,7.13,17.95,10.12,36.51,21.37,54.03,31.97,6.31,3.82,21.71,15.91,25.08,21.91s-1.04,6.25-.31,11.83l5.88,2.59c-1.34,1.63-3.26,2.77-4.4,4.58-16.14,25.61-30.78,53.48-45.38,80.62-18.05,33.55-34.82,66.85-49.69,101.22-3.75,8.67-9.49,15.51-13.73,26.4-.5,1.29-2.3,1.43-2.59,2.17-4.1,10.57-6.49,46.98-6.28,59,.15,8.5,7.44,35.79,12.56,42.53,6.2,8.17,41.17,38.27,50.2,43.8,8.3,5.08,16.3,5.04,25.76,3.12,5.76-1.17,10.44-6.99,17.56-4.93-.97,1.76-4.6,3.44-6.43,4.05-3.2,1.07-23.55,4.83-23.54,7.44,2.28,3.77,6.87,1.47,10.61.63,19.52-4.37,37.44-14.25,55.31-22.69,11.72-5.54,20.85-10.34,32.17-16.83,3.57-2.05,15.17-5.95,15.87-9.13.34-1.53-.02-1.7-1.49-1.5-3.74.71-6.29,6.68-10.48,4.52,2.95-2.26,22.92-16.52,24.99-14.5.6,2.49-7.76,8.69-.96,7.57,5.42-.89,2.56-3.13,3.45-4.52,8.33-13.07,43.53-24.93,58.18-33.88,36.57-22.36,69.89-52.93,87.06-92.94,3.79-8.83,6.62-19.16,10.36-28.14,9.39-.73,6.7,5.5,8.79,10.54.87,2.1,3.48,2.51,3.68,4.29.14,1.29-2.24,3.59-2.6,6.56-3.01,24.8,10.51,68.37,18.31,92.74,12.08,37.75,21.15,60.11,52.21,85.79,8.56,7.08,19.94,16.22,30.53,20.47,29.06,11.68,66.99-15.09,84.95-37.01,52.08-63.56,63-129.92,88.3-204.7.94-2.78,7.77-21.56,8.73-22.27.28-.21,6.07-2.37,6.58-2.46,6.61-1.12,5.58,4.56,9.44,7.45,3.33,2.49,9.9,5.11,13.92,8.08,8.89,6.57,27.97,27.22,33.27,36.73,7.61,13.67,12.51,30.92,20.59,44.41,1.59,2.66,4.88,6.08,7.71,7.33,1.75,0,7.15-6.04,8.32-7.72,21.68-31.17,13.5-63.54,17.26-97.74.29-2.63,2.31-11.77,4.64-12.42,1.3-.37,9.19.76,10.27,1.35,1.19.66,2.6,4.56,4.01,5.99,7.19,7.27,18.6,11.44,27.3,16.7,12.11,7.32,19.73,12.45,32.45,18.55,51.41,24.67,83.81,34.06,141.68,34.09,24.28.01,60.49-23.08,74.01-42.91,21.09-30.93,23.03-57.74,14.27-94.15-10.84-45.04-35.98-71.26-67.68-102.32-20.48-20.06-41.37-39.12-62.55-58.45-4.5-4.11-25.05-17.28-17.03-25.08.62-.6,7.53-4.63,8.29-4.78,2.77-.56,5.04.84,7.72.88,43.95.65,98.83-13.09,137.43-34.65,8.11-4.53,17.4-10.89,18.11-20.91,1.24-17.52-22.12-48.79-31.18-63.79-10.75-17.79-18.98-36.83-34.25-50.74-33.48-30.47-107.05-63.56-151.36-74.65-19.1-4.78-39.13-5.09-57.94-10.06-3.24-.86-7.94,1.05-10.33-1.67-1.03-1.17-3.64-8.64-3.65-10.25-.04-4.84,9.78-7.4,13.63-9.9,14.28-9.26,28.12-22.8,41.58-33.42,8.46-6.67,20.06-13.13,28.16-20.34ZM1063.13,506.58c-.53-.76-14.65-6.18-17.06-7.46-3.51-1.86-6.39-5.41-9.94-7.06-4.3-2-10.16-2.22-14.5-4.51-3.24.12-.48.99.19,1.73,5.92,6.45,19.15,10.53,27.18,14.91,12.04,6.56,24.36,13.97,35.03,21.97,6.46,4.84,12.34,12.22,20.09,14.4,1.14-.94-12.68-13.51-13.95-14.54-1.47-1.18-3.19-1.46-4.53-2.47-7.22-5.42-15.05-13.21-24.51-14l2-2.97ZM69.13,787.58c-1.39-.12-2.91-.62-3.95-1.56-5.69-5.15-14.26-15.32-19.56-21.44-4.82-5.57-8.36-12.66-14.48-17.01.78,9.68,9.18,15.72,14.97,22.52,4.8,5.64,9.58,13.75,16.49,17.5,2.01,1.09,5.38,3.36,6.52,0ZM82.86,798.85c-.89-.72-7.45-2.58-7.72-2.28-.34,1.9.3,2.72,1.42,4.07.52.62,11.15,9.84,11.83,10.21,2.83,1.57,5.49,2.06,8.73,1.71-.2-7.69-7.07-7.16-11.98-10.53-1.33-.91-1.58-2.62-2.28-3.18ZM116.99,815.72c-.69-.64-3.6.06-4.86-.14,1.61,2.45,7.68,4.58.98,5.46v2.05s31.02,16.47,31.02,16.47c.9-6.11-2.87-4.86-5.89-6.6-3.97-2.29-17.53-11.15-20.12-13.91-1.02-1.08-.78-3-1.13-3.33ZM273.14,1173.56l20.27-8.22,3.71-3.27c-1.53-2.11-1.79-1.36-3.69-.72-2.8.95-6.35,3.38-9.3,4.71-3.77,1.7-11.34,1.69-10.98,7.51Z"/><path d="M564.04,605.5c2.07-6,6.17-6.83,11.63-3.96,3.34,13.59,8.8,29.43,7.51,43.57-.96,10.53-8.75,18.63-13.88,27.12-5.55,9.17-5.63,14.12-15.82,21.18-19.64,13.61-40.15,13.66-57.9-2.79-12.38-11.47-27.04-31.01-25.43-48.54s8.35-29.83,18.57-42.43c9.09-11.2,16.94-12.16,30.9-11.07,17.1,1.33,29.06,11.21,44.41,16.92ZM491.47,664.23c6.73,9.42,22.08,20.29,34.18,21.32s24.07-5.44,31.11-14.85c2.35-3.14,12.51-19.94,13.16-22.84,1.82-8.08-1.29-12.31-2.56-19.03-1.92-10.19,2.04-12.95-9.71-18.29-12.8-5.82-33.14-14.06-46.97-11.91-2.54.4-5.19,2.27-7.29,3.71-6.66,4.55-19.05,22.85-20.22,30.8s3.47,24.34,8.29,31.09Z"/><path d="M142.12,510.56c-2.48-3.29-6.44-4.23-9.48-7.01-3.88-3.55-7.4-9.67-11.47-13.53-1.42-1.35-3.47-1.51-5.07-2.93-.52-.46-3.61-4.15-1.98-5.03,4.4-2.37,7.87,5.03,10.07,6.94,4.23,3.66,11.38,8.6,14.96,13.04,1.42,1.76,2.77,6.15,2.96,8.53Z"/><path d="M223.13,1194.57c-7.63,6.24-17.32,9.24-25.89,13.6-5.62,2.86-12.77,8.22-18.16,10.84-2.26,1.1-6.36,1.24-8.95,1.54l26.64-14.85,26.36-11.13Z"/><path d="M18.13,325.56c-2.51,2.64-8.03-11.88-3.49-13.99l3.49,13.99Z"/></svg>