<?xml version="1.0" encoding="UTF-8"?><svg id="Ebene_2" xmlns="http://www.w3.org/2000/svg" viewBox="0 0 950.04 924.2"><g id="Ebene_1-2"><g id="fVj7le.tif"><path d="M950.04,575.62v45.98c-7.3,18.99-6.16,41.36-12.11,60.86-2.88,9.46-11.13,16.7-12.97,23.01-1.56,5.35-.16,10.15-1.07,14.92-3.52,18.36-16.18,24.26-33.93,20.21-9.51,8.7-6.61,22.31-8.43,33.38-1.03,6.29-5.55,16.22-5.57,20.54-.03,6.5,10.73,21.1,12.76,29.36,6.33,25.78-13.05,46.49-31.67,61.55-11.05,8.94-20.66,14.52-35.83,11.94-5.28-.9-8.64-5.69-12.06-5.81-5.16-.19-8.29,5.68-12.54,7.4-21.04,8.49-71.18,13.48-91.67,4.74-2.15-.92-14.39-11.42-14.74-13.2-2.35-12.25,2.15-25.25,8.35-35.63,17.38-29.09,38.41-40.15,43.58-80.36,7.08-55.01,1.26-77.24-18.46-127.42-9.64-24.52-21.97-47.44-32.41-71.54-3.07-7.08-8.02-26.5-10.91-30.55-1.98-2.76-5.49-3.18-8.6-2.92-11.17.94-30.64,9.89-43.08,12.97-38.78,9.6-78.35,16.71-118.37,18.55-2.26,40.38-7.86,80.51-4,120.95-22.95,44.26,5.61,113.06-14.22,151.72-3.06,5.97-11.89,13.12-12.72,16.97s1.59,13.17.97,19.27c-1.35,13.2-17.96,37.77-31.44,40.51-9.77,1.99-62.91,1.51-70.97-2.07-30.27-13.46-3.95-54.68,8.8-72.1,15.51-21.2,29.33-25.91,35.17-54.79.77-3.82,3.58-29.45,2.48-30.52-12.9-1.62-29.77-3.45-42.07-6.91s-22.49-13.75-31.84-16.14c-8.37-2.13-16.55.22-24.59-1.4-22.33-4.5-44.44-49.51-57.78-68.16-17.82-24.92-31.73-30.44-35.06-64.88-4.83-50.05,46.56-63.04,69.07-99.78-5.36-10.86-14.46-18.09-20.03-29.26-19.73-39.56,3.88-79.79-8.64-119.31-4.97-15.69-44.29-79.67-56.91-89.02-13.91-10.31-36.27,1.99-51.37,8.67-28.21,12.48-40.41,21.43-62.56,41.39-29.22,26.33-78.17,15.27-94.35-19.67-25.1-54.21,12.68-83.07,39.97-122.69,4.73-6.86,22.51-32.42,21.56-38.69-.72-4.75-4.9-9.06-5.33-14.95-1-13.77,22.48-47.31,35.96-53.16-17.9-30.84-1.04-59.43,34.1-41.78,3.74-18.75,9.95-32.03,31.64-26.61s26.39,27.07,35.5,44.44c54.29,15.95,107.06,41.56,152.58,75.3,26.53,19.67,58.67,57.55,83.48,72.44,19.83,11.91,48.33,16.56,69.95,27.99,23.28,12.31,38.57,33.95,67.61,34.33,72.14.95,137.36-45.21,209.31-25.42,48.4,13.32,125.89,66.43,142.49,115.38,21.45,63.25,17.63,137.1,16.9,203.01l6.07,26.92ZM399.88,588.1c-1.32-1.17-5.56-1.68-7.53-1.21-7.9,1.86-28.91,11.92-37.89,15.79-10,4.32-19.77,9.34-30.05,12.96,5.73,23.62,28.38,28.59,47.37,37.56,2.74,1.29,4.8,4.56,6.67,5.33,7.65,3.12,22.8-.09,31.9,3.07-.41-9.56-6.8-70.22-10.47-73.49Z"/></g></g></svg>