<?xml version="1.0" encoding="UTF-8"?><svg id="Ebene_1" xmlns="http://www.w3.org/2000/svg" viewBox="0 0 1543.36 1571.49"><defs><style>.cls-1{fill:#fff;}</style></defs><path d="M367.65.95c2.16,4.2,1.55,9.31,3.42,13.58,6.34,14.47,24.97,35.92,33.58,52.4,6.99,13.37,10.88,28.27,19.05,41.08l-9.8,12.65,48.66,20.55-.08,4.93c-9.15,12.41-14.17,1.47-22.48-2.57-33.41-16.25-86.12-27.59-118.49-4.31-2.24,1.61-4.47,1.42-3.56,5.41l23.99,2.02c1.41,1.39-4.83,19.9-6.46,21.54-2.63,2.64-22.92,8.22-28.13,12.34-6.02,4.76-5.51,10.39-18.42,18.09-38.79,23.14-85.21,35.27-115.96,69.99-20.31,22.94-35.55,48.34-53.32,72.66-38.35,52.49-108.39,135.76-107.66,202.28.09,7.87,3.3,19.65,3.6,28.13,2.38,68.23-7.79,125.42,53.54,170.87,38.03,28.19,71.12,23.55,113.39,7.61,98.85-37.28,136.02-125.32,197.45-202.47,19.75-24.81,36.59-36.33,59.95-56.03,6.9-5.82,16.74-18.67,22.84-23.15,3.05-2.24,8.64-1.54,10.25-3.74,1.74-2.39,1.09-16.92.85-21.11-.59-10.05-6.68-30.33-6.03-38.06,1.27-15.19,9.51,2.92,11.07,9.02,8.81,34.44,11.38,110.92,13.05,148.94,3.08,70.2-17.43,134.73-18.15,204.17-.43,41.58,2.66,83.64.04,125.88-.84,13.62-5.16,29.79-5.95,44.05-3.31,59.63,14.11,116.99,18.06,175.9.88,13.1-1.02,26.93-.06,40.06,1.76,23.84,9.69,48.22,11.94,72.05,2.35,24.88.5,52.91,2.06,77.94,1.82,29.4,6.61,58.3,6.1,87.99-.05,3.13-2.57,5.79-2.12,9.04,3.66-.62,3.37-4.1,4.25-6.73,2.4-7.11,6.68-21.43,7.51-28.49,2.36-20.08-1.99-43.11.73-63.27.94-6.93,19.11-58.01,22.44-61.55,1.81-1.92,4.55-2.99,6.79-1.72,3.62,2.05,14.33,36.89,17.45,43.52,15.52,32.94,41.92,44.45,77.79,40.27,14.9-1.74,16.78-17.39,20.38-29.61,12.33-41.89,16.53-86.3,25.05-128.94.54-2.72,2.25-10.37,6.43-9.44l7.01,9.02c4.71,63.82,10.02,132,6.15,196.02-2.16,35.77-13.25,71.33-10.17,107.6,12.31,2.27,19.02,12.59,30.09,13.32l-3.91,9.01c9.19,3.89,49.02,36.14,39.64,46.75-11.41,5.26-18.98-8-30.62-9.7l-5.13,11.92h8.02s-1.88,13.15-1.88,13.15c-11.93,1.4-24.53,2.98-36.19,5.79-10.83,2.61-52.34,20.64-59.07,11.16-6.84-9.63,19.83-13.57,24.3-15.91,2.05-1.07,3.8,1.07,2.86-4.17-17.56-3.21-36.85,5.84-50.93,15.96l-20.11-7.86c.39-32.39,13.01-66.75,45.95-78.21,7.87-2.74,43.17-6.26,44.81-11.17-.71-24.96,5.58-49.86,8.02-73.98,5.39-53.44,6.13-120.23,2.36-173.86-.24-3.42.2-6.61-3.12-8.88-9.31,24.1-10.36,50.68-16.41,75.56-2.22,9.14-11.12,39.77-16.53,45.47-10.63,11.19-57.32,2.99-70.79-3.25-18.56-8.6-40.62-43.07-41.21-63.77-3.74-3.46-10.04,11.9-10.94,14.03-14.56,34.23-3.37,54.24-7.2,84.8-1.96,15.62-11.57,36.52-14.9,53.09-1.87,9.3-7.29,41.14-3.94,48.08l56.03,33.95.08,22-17.04,13.24c3.85,6.89,9.19,9.86,3.46,18.34-7.33.84-11.92,7.32-17.47,9.5-12.97,5.1-82.73,2.97-98.99.94-6.53-.82-23.55-1.79-24.76-9.28,9.14-17.48,17.27-37.65,26.66-54.79,7.81-14.27,29.06-26.5,43.65-34.37,2.78-1.5,6.07-1.07,8.99-1.94,3.54-5.74-.15-11.97.26-18.64,4.41-71.75,2.39-138.09-3.86-209.95-2.45-28.21-12.21-59.59-13.21-86.36-.48-12.92,2.22-27.76,1.2-41.62-3.67-49.97-15.82-97.47-15.87-148.11-.07-62.39,6.03-126.83,6.08-189.96.04-49.53,9.28-89.86,15.49-138.28,6.35-49.52-5.38-99.03-5.68-148.68-2.97-3.33-39.14,30.6-43.01,33.95-59.23,51.26-90.91,114.7-140.94,173-36.6,42.65-129.78,101.11-186.98,85.14-55.23-15.43-96.05-67.95-96.94-125.18-.4-25.43-.78-51.94-1.83-78-.46-11.34-4.3-26.88-4.15-37.82.32-23.67,32.98-87.76,47.6-108.55,8.86-12.6,20.59-22.89,29.31-34.67,23.13-31.26,43.97-75.91,70.18-103.79,3.04-3.24,8.07-3.53,10.9-7.11.49-6.05-6.99,1.37-10.71.6-2-.42-5.86-4.25-5.26-6.55l41.96-31.05c.11-4.24-7.26-.71-9.08-.07-15.19,5.32-34.38,20.15-49.75,18.12-4.58-2.59,4.86-11.2,7.42-12.64,14.29-7.98,36.82-17.39,52.67-25.14,21.86-10.68,26.97-5.99,43.43-27.59,1.31-1.72,12-7.2.54-6.45-25.27,1.65-54.08,12.63-82.12,13.87-15.08.67-28.36-1.94-43.08-4.1-.87-5.43,2.3-7.82,6.15-10.85,27.56-21.73,71.39-39.11,106.34-41.61l41.42-12.53-19.38-18.57c-32.15-1.98-65,3.6-96.49-4.52-2.14-17.21,20.49-15.37,33.51-19.34,13.64-4.17,33.11-13.92,47.47-12.68,4.47.39,3.77,4.87,6.49,6.05,15.84,6.91,36.77,9.88,54.2,19.28,6.86,3.7,18.52,10.01,14.22,18.76h8c-2.26-13.52,6.33-29.42,7.78-43.2,2.11-19.96-1.54-43.83-7.78-62.77,4.83-2.12,11.61-1.09,15.96-3.06,2.62-1.19,4.28-5.88,7.47-6.7,3.97-1.03,7.56,1.77,11.42,1.62,7.91-.3,17.12-9.48,26.87-5.61ZM343.92,12.69c-6.33-5.88-11.35,14.01-9.97,17.98,2.98-.77,11.17-16.86,9.97-17.98ZM321.92,34.67l-.98-15.96c-4.65,3.54-4.82,13.6.98,15.96ZM395.9,116.67c-9.44-26.79-19.31-54.55-38.97-75.95-5.57-.17-28.97,67.84-28.98,77.95,22.43-5.03,45.88-5.61,67.95-2ZM385.88,68.68c-9.19-.64-.05,6.12,1.13,9.89,1.24,3.97.41,8.47,1.82,12.18,1.48,3.89,11.39,24.59,13.34,26.66,2.68,2.83,2.94,4.13,7.72,3.26,1.63-1.5-13.28-24.68-14.98-28.18-1.39-2.86.6-5.73-.18-7.87-1.29-3.51-9.49-9.57-8.85-15.93ZM176,102.68h46.98c4.69,0,1.25-7.66-2.2-9.8-9.88-6.15-38.31-.64-44.78,9.8ZM275.94,128.68c.68-3.65-2.19-6.63-5.97-5.99v3.97s5.97,2.02,5.97,2.02ZM287.96,136.65c11.05,6.62,21.72-13.88,5.91-11.06l-5.91,11.06ZM277.96,146.66c-5.92-10.01-23.18-5.42-31.98-.97,10.64,1.73,21.31,2.4,31.98.97ZM207.99,152.7c-29.28,4.15-57.42,16.49-81.92,32.98,5.38,8.49,10.42,3.12,16.98,3.01,18.63-.31,37.01-1.42,55.44-4.51,5.61-.94,34.67-6.86,37.53-8.46,3.4-1.91,1.09-3.55-1.49-4.58-4.22-1.68-27.19-7-28.35-8.64l1.82-9.8ZM259.95,156.68c-6.38,2.69-12.85,1.27-19.02,1.98-3,.35-6.09,1.61-2.95,4h21.99s-.02-5.98-.02-5.98ZM291.94,156.69c-5.9.28-16.11-2.6-15.97,5.98,5.9-.28,16.11,2.6,15.97-5.98ZM317.93,156.7h-11.97s0,3.97,0,3.97l11.97-2.01v-1.96ZM285.96,178.7c-18.03-.52-38.68.57-45.97,19.97,1.85,1.71,42.54-14.09,45.97-19.97ZM551.75,1512.61l1.83-6.68c-13.7-9.82-28.12-23.44-45.71-25.23,5.38,11.04,22.87,14.56,20,27.98,7.35-.35,8.42-5.75,15.89-.8,2.51,1.66,1.32,6.86,8,4.73ZM707.77,1482.7c-22.85-2.69-64.54-.64-82.9,14.03-8.97,7.16-17.2,18.41-19.03,29.94,11.31.18,17.05-8.84,25.34-13.63,11.56-6.67,45.82-28.84,56.15-30.01,4.65-.52,8.82,1.47,13.41,1.74,2.17.13,7.58,1.26,7.04-2.07ZM495.87,1486.7l-13.99-2.01c-2.49,7.99,19.74,7.42,13.99,2.01ZM701.79,1506.65c6.92.22,13.7,3.72,20.38,4.66,19.32,2.73-8.34-15.5-15.43-10.82-1.16.77-5.52,5.61-4.96,6.15ZM451.9,1524.67c7.4,5.24,34.71-13.64,33.86-18.74-11.52-14.36-32.03,5.3-33.86,18.74ZM509.85,1506.69c-10.43,2.5-14.25,13.45-17.98,21.97l15.09-13.88,2.89-8.09ZM705.78,1514.71c-6.57-7.08-30.05,1.21-37.97,5.07-2.88,1.41-5.01-.43-4,4.89,11.43-.02,25.33-1.74,36.43-4.61,1.79-.46,8.83-1.79,5.53-5.35ZM671.79,1514.7c-5.13-.39-11.74.66-13.98,5.96,3.72-1.23,11.86-2.64,13.98-5.96ZM517.87,1530.69l-1-12-9,11.97,10.01.03ZM701.77,1534.7c-4.89.07-12.06-1.66-13.98,3.96,3.86-.14,12.67.76,13.98-3.96ZM529.86,1542.7c-8.79.68-17.74-.64-26.48-.73-2.63-.03-4.4-1.76-5.5,2.69,10.01-2.29,24.8,7.63,31.99-1.96ZM471.88,1548.7c-8.17-2.16-16.05-2.47-23.98.97,2.29,3.36,5.44,2.83,8.88,3.12,2.22.18,20.59,1.1,15.1-4.08Z"/><path d="M579.84,142.72c-2.04,4.64-21.66,22.46-18,25.95,15.64-.77,27.35,10.61,39.97,18.01l-21.83-27.27c-.49-2.83,7.96-10.8,10.85-10.8,9.35,0,49.51,55.94,55.79,66.26,2.01,3.3,1.97,7.5,3.65,10.35,14.36,24.48,29.48,48.79,39.5,75.46l-15.96-27.02c-3.45-2.94-1.96,4.46-1.58,5.59,2.3,6.94,8.71,15.11,12.36,21.63,2.04,3.65.61,10.67,7.19,9.82l1-6.01c13.36,21.41,24.21,44.92,37.37,66.61,6.15,10.13,43.71,61.14,41.49,68.15-1.99,4.63-12.67,2.01-11.74,8.03,8.42,14.97,17.34,32.15,24.22,47.82,12.05,27.41,21.25,57.24,33.85,84.14,13.93,29.75,33.94,56.4,47.72,86.26l-6.94-1.06-34.17-55.82c-14.32-5.14-13.03-20.13-17.89-32.1-6.97-17.15-37.59-77.37-48.98-89-1.91-1.94-2.59-3.8-5.94-3.03-2.09,8.95,2.04,15.83,3.53,23.45,5.43,27.81,16.75,57.98,26.95,85.04,10.19,27.03,22.45,53.32,33.04,80.17-1.27,4.87-3.23,7.47-8.58,7.53-4.83.06-4.42-9.5-10.96-8.19-1.4,9.82,2.93,19,1.82,28.78-3.11,27.38-16.79-5.85-20.79-14.82-7.7-17.28-13.6-37.45-21.56-54.43-2.82-6.02-12.56-26.25-15.64-30.36-3.38-4.5-15.17-8.22-12.17.13,4.64,12.91,17.46,36.89,19.42,48.67.7,4.18-1.39,7.85-1.09,12.02-2.23,2.87-24.36-23.04-24.01-27.99-10.81,1.38-3.14,6.68-1.36,12.39,4.57,14.73,11.95,32.78,14.5,47.49s-3.36,20.88,8.46,31.98,28.9,22.76,43.36,28.18c37.73,14.15,105.1,11.68,145.91,10.03,87.43-3.53,152.84-33.39,234.97-57.11,44.06-12.72,92.24-26.26,136.71-37.24,15.26-3.77,19.5-5.5,34.38-1.87,5.07,1.24,20.44-.67,9.94,10.19-6.72,6.95-11.42.08-17.03,4.93l13.95,9.04c.83,2.91-3.3,5.4-3.33,6.96-.02.95,5.77,8.91,6.34,8.96,6.45.64-3.91-8.7,2-9.92l14.99,14.97c-6.79-.33-10.65-1.24-16.11,4.14,8.35,21.23,29.04,38.55,31.99,61.41,16.84,11.19,27.33,33.78,38.03,50.96,39.87,63.98,75.72,139.62,121.87,197.65,6.18,7.77-2.75,10.5-9.45,8.4-19.29-25.12-37.75-50.67-51.74-79.2-1.93-3.93-4.52-15.31-5.07-15.94-3.67-4.19-8.7-4.37-14.01-15.03-28.12-56.47-64.01-102.27-94.37-157.61-2.63-4.8.39-11.05-11.12-8.79,3.67,11.79,13.55,25.99,16.92,37.13,1.09,3.6.89,4.56-2.91,5.88l-47.53-107.52c-11.73-17.92-24.87-10.59-42.87-5.9-85.78,22.36-169.96,51.19-255.48,74.41-45.38,12.32-94.35,12.97-140.85,12.92-41.85-.04-86.56,2.3-123.29-20.65-32.84-20.53-105.49-91.91-121.41-126.54-26.65-57.98-50.09-117.88-75.68-176.29-20.49-46.77-34.38-81.41-47.07-130.91-5.94-23.19-13.63-45.96-18.54-69.45-10.95-11.98-24.96-4.85-38.92-4.07,1.08-13.39,9.27-13.28,16.63-18.34,29.95-20.57,66.44-47.52,84.61-79.36,2.04-3.57,8.39-14.46.13-13.95-15.78,7.31-33.33,10.33-49.37,16.7-22.38,8.89-35.88,26.7-60.84,28.89l-2.92-4.62c.85-2.33,1.98-4.53,3.86-6.2,5.52-4.92,33.73-18.61,41.88-22.1,21.18-9.07,44.54-14.65,66.01-21.96,5.86-2,10.17-8.15,16.86-7.17,12.19,1.79-1.03,13.47-1.01,17.17l6.09,4.99ZM623.81,194.66c-.4-6.76-6.61-12.53-11.97-15.99-1.14,4.16,1.4,5.47,2.94,8.05,1.2,2.02,5.7,9.07,9.03,7.93ZM613.17,215.28c-4.37-5.04-24.9-22.6-30.67-26.28-4.27-2.72-19.96-11.9-23.78-6.36l5.61,23.56c18.11,3.14,34.11,5.98,48.49,18.44,4.17-2.64,3.09-6.19.35-9.35ZM549.82,182.68c-4.58-1.14-3.27.86-4.55,2.51-7.36,9.48-12.82,23.17-21.32,32.51,7.77,2.59,11.1,15.93,17.92,11.96-2.98-9.69-8.85-13.7-3.81-24.76l11.71.96,4.02-2.31-3.97-20.87ZM597.82,188.69c-3.66-.47-5.83-.1-7.95,2.99,2.56,2.43,4.18,5.77,7.95,4.99v-7.98ZM639.79,216.68c.59-.64-6.22-12.47-7.19-13.79-1.81-2.47-3.05-4.96-6.78-4.19,3.78,6.55,5.93,15.69,13.97,17.98ZM552.89,218.67c-6.15,1.13,2.21,19.97,3.96,19.97,9.06-4.64,5.38-21.68-3.96-19.97ZM615.81,232.68c-11.76,4.5-21.61-9.5-33.08-11.89-2.73-.57-14.26-1.97-12.84,2.83,4.62,15.54,22.75,28.43,32.97,41.03,69.1,85.24,102.79,183.61,146.19,281.76.87,1.97,2.17,6.49,4.7,6.26-6.91-50.13-30.22-97.86-47.93-145.02,2.94-3.77,3.21-.65,4.48,1.58,5.05,8.85,7.45,20.85,11.72,30.21l9.75,15.22c-1.99-12.31-8.09-23.98-11-35.97-9.16-37.77-11.14-50.11-31.33-84.66-5.36-9.18-11.52-19.79-18.65-27.35-4.35,6.41,3.95,9.82,4.98,15.02.69,3.49-.52,7.5.5,11.5.29,1.15,15.9,22.41,6.16,15.84-5.43-3.66-8.4-17.23-11.65-24.35-6.56-14.35-37.63-77.72-49.06-83.01-1.94-.9-4.86.69-5.9.04v-9.05ZM595.83,362.68c-6.55-14.07-10.18-29.73-16.9-44.09-7.48-16-20.46-31.31-28.7-47.26,12.25-22.82-23.77-26.7-32.32-41.71l-2.92-.86-13.13,14.88c7.6,10.45,10.06,45.22,16.96,53.09,2.46,2.81,7.52,1.47,10.97,3.02,5.16,2.31,12.88,15.39,20.1,17.89l46.95,63.03c2.83-5.44-.56-12.2-1.01-17.99,4.51,9.68,3.98,13.39,6.95,22.04,7.93,23.05,31.04,52.14,44.65,73.33,11.49,17.91,16.15,34.19,33.36,48.63,2.25,1.88,3.25,4.85,7,3.98-8.51-17.85-16.83-35.93-25.02-53.95-5.93-13.05-17.69-32.64-20.48-45.51-.9-4.13-.46-8.37-.49-12.53l-4.99,1.37-2.92-2.55c3.65-10.36-6.09-15.44-12.01-23.88-2.22-3.17-7.63-16.03-8.34-16.63-1.19-1-7.1.08-10.27-.73-2.71-.7-3.82-4.57-7.44-3.56.15,3.29-.27,6.7-.01,9.99ZM665.78,264.68c.52-3.45-.44-6.26-1.54-9.44-1.18-3.4-16.46-30.57-20.42-26.55,4.85,13.1,12.33,25.77,21.96,35.99ZM567.84,252.66c-1.75-3.46-3.17-8.82-7.99-7.97-.14,2.92-.62,5.31,1.94,7.04l6.04.93ZM657.79,276.67c1.04-1.09-3.07-14.09-7.98-11.98-1.63,1.82,2.78,13.78,7.98,11.98ZM673.79,294.66l-5.99-15.14c-6.2-1.12-12.15,2.54-4.64,6.79l10.63,8.35ZM597.83,306.66c-2.52-4.07-3.38-9.01-5.97-13.01-1.98-3.06-9.88-12.26-14.01-12.96,3.01,8.21,8.71,16.07,13.47,23.45,1.78,2.76,4.17,4.29,6.51,2.52ZM615.84,298.68c2.04-6.42-8.23-18.78-14.04-17.24-11.47,3.05-2.51,15.89.94,23.31,27.74,59.59,62.7,120.06,93.4,178.56,24.47,46.61,46.19,97.78,77.26,140.7,1.79,2.48,2.09,5.56,6.33,4.64,1.59-1.83-9.81-35.4-13.9-36.85-3.14-1.11-8.64,3.33-10.53-3.7-18.27-44.26-29.24-90.98-49.98-134.07-6.08-12.64-13.99-28.3-20.69-41.22-8.4-16.2-24.78-30.26-22.85-50.16l-7,.07c-1.18-3.67-1.4-7.26-3.3-10.75-5.44-10.01-18.02-23.72-22.26-33.92-1.79-4.3-.63-15.39-5.5-21.35l-7.9,1.97ZM691.78,672.67c-13.75-36.13-31.75-70.53-46.94-106.02-25.45-59.47-47.52-124.6-78.66-181.31-3.79-6.9-18.13-23.89-17.48-29.64.3-2.6,4.09-3.43,2.39-9.07-.82-2.75-25.37-34.37-27.22-31.95,3.61,25.49,12.32,50.19,23.96,73.02l5.99-3.02c5.24,38.44,26.08,70.05,40.39,104.62,22.95,55.45,40.93,114.73,75.6,164.37l21.96,19.01ZM721.77,366.67c-8.25-17.75-16.07-36.26-27.96-51.99-.49,3.44.4,6.27,1.53,9.45,2.54,7.15,11.07,27.29,14.73,33.27,1.28,2.09,9.55,11.6,11.7,9.28ZM603.8,336.68l-8.98-17.96c-4.71,3.62-2,2.96-.19,6.13,2.23,3.9,5.31,9.47,9.16,11.83ZM753.74,418.68l-19.63-33.34-6.33-4.65c-2.34,11.54,8.76,16.66,13.35,22.6,4,5.18,4.6,13.76,12.6,15.39ZM599.79,392.69l-3.94.96,7.96,11.02-4.02-11.98ZM632.25,476.05c-1.9-1.57-19.45-36.62-23.58-43.22-6.73-10.75-16.18-20.07-20.86-32.14-2.51-.55-2.3.9-2.06,3.03,1.16,10.6,23.47,63.1,29.11,76.91,6.57,16.08,14.97,31.69,20.98,48.02l7.95-27.97,7.97,21.04,40.02,58.95c.1-15.59-4.25-29.92-11.58-43.39-12.71-23.36-28.82-45.46-47.94-61.23ZM746.55,449.99c-3.5-7.6-5.06-15.85-8.01-23.09-.75-1.85-2.32-6.46-4.75-6.21l3.99,39.99c6.93-1.09,14.35.01,11.96-8.67-.42-1.53-2.96-1.53-3.19-2.02ZM749.73,432.68l-3.95.97c12.39,17.94,12.42,42.5,29.95,57.02l-26-57.99ZM681.78,470.67c1.98-2.24-7.43-22.18-9.6-25.38-1.74-2.56-2.27-5.46-6.37-4.6-2.35,2.74,7.23,21.86,9.6,25.38,1.73,2.57,2.27,5.46,6.37,4.6ZM651.83,538.68c-2.86,10.1,20.79,75.63,24.97,75.96,4.39.34,1.29-5.41.95-6.88-4.27-18.52-13.88-44.95-21.39-62.63-1.05-2.47-1.08-5.9-4.53-6.45ZM727.76,706.67c.62-8.29-.62-16.4-2.57-24.41-9.92-40.59-28.22-92.84-54.52-125.46-1.89-2.34-3.25-4.84-6.86-4.12,2.05,15.18,33.25,78.87,29.76,88.75-1,2.83-5.63,2.65-5.95,4.5-.8,4.61,21.87,45.44,26.51,51.4,3.41,4.39,7.13,10.32,13.64,9.34ZM733.76,636.67l-25.07-67.9-12.89-6.08c.46,22.21,10.11,43.79,24.02,60.95,3.27,4.04,8.86,11.86,13.95,13.03ZM769.78,574.69c-.37,12.92,7.35,25.98,10.97,37.99,4.05,13.42,3.12,29.29,14,39.96,4.29-2.97,2.46-3.82,1.58-7.51-4.66-19.5-13.96-43.64-21.64-62.38-.98-2.39-2.07-8.01-4.9-8.06ZM791.74,694.67c.22-3.58.06-7.14-.25-10.73-3.03-35.07-22.05-49.77-38.56-77.42-5.87-9.83-8.94-21.5-17.13-29.84,1.03,6.41,3.24,15.53,5.54,21.44,9.7,24.88,28.76,62.15,41.33,86.65,1.56,3.05,4.56,10.92,9.08,9.91ZM725.75,594.67c.13-4.38,1.11-10.45-3.96-11.99l2,11.99h1.96Z"/><path d="M1311.54,700.67c3.26,3.21-3.87,41.27-2.08,48.68.64,2.68,9.53,2.63,10.07,7.31h-10.01c-2.94,17.51,7.67,32.84,11.45,47.57,8.59,33.47,13.32,68.25,22.38,101.65-1.33,8.98-3.76-9.17-6.84-9.16-6.61.03.83,13.72,1.38,16.76,4.57,25.29,5.8,53.73,9.36,80.46,6.8,51.05,14.75,102.11,14.33,153.82-4.34,7.95,2.86,46.18-10.73,42.7-3.06-1.35-4.68-3.55-5.29-6.84-2.06-10.97-.99-25.85-2.34-37.67-11.43-99.6-.39-191.03-31.64-288.33-.84-2.63-.05-6.24-4.04-6.94-5.14,18.48,2.4,37.06,3.95,55.03,2.19,25.39,7.47,63.92,7.26,87.63-.12,13.6-4.67,30.29-5.31,44.26-4.88,106.62-17.34,213.43-17.99,320.17-.03,5.21,2.22,9.99,2.15,15.81-.2,18.27-8.9,33.53-15.78,49.84,1.52,8.09,50.61,20.07,39.43,39.01l-16.68-1.75-1.06,5.03c9.15,2.07,18.72,6.14,27.56,8.43,5.59,1.45,37.28,2.41,23.46,14.58-4.13,3.64-25.18,1.5-33.53,4.45-23.91,8.44-40.13,15.17-68.3,11.68l-76.1,15.96c-18.78-1.29-14.11-19.55-10.44-32.53,5.69-20.12,19.23-33.31,33.4-47.57-6.3.23-10.28,7.28-15.54,9.43-16.16,6.6-46.32,14.24-64.38,19.58-7.43,2.2-15.59,10.09-15.77-5.66l15.72-19.36c-6.16-5.38-37.18,27.03-44.68,25.65-12.12-2.24-7.79-29.71-4.33-37.71.92-2.12,18.5-25.98,21.03-28.96,8.68-10.22,32.46-28.98,44.88-33.1,5.89-1.96,17.35-.7,18.82-5.17,5.53-16.78-10.09-72.37-17.33-90.11-4.59-11.24-13.62-15.7-8.52-30.45-1.74-.4-3.59-1.5-5.29-1.66-12.88-1.17-65.24,15.09-82.08,18.94-53.72,12.3-108.14,29.5-161.9,40.04-13.02,2.55-27.32.82-39.01,2.98-6.32,1.17-14.51,7.1-21.01,8.98-20.97,6.06-48.46,12.09-70.01,15.96-12.41,2.23-26.24,5.5-38.35,2.51l-.03-5.91,13.88,1.83,1.19-5.98c17.52,2.11,33.85-5.78,50.4-9.36,8.2-1.77,17.6-1.76,26.17-3.82,15-3.61,32.99-14.22,45.78-16.2,10.69-1.66,21.56.52,32.62-1.37,10.15-1.73,21.63-8.13,31.45-10.54,13.64-3.35,29.67-4.28,42.51-7.48,19.03-4.73,39.07-14.38,57.77-18.21,11.49-2.35,23.94-1.48,34.62-3.36,33.71-5.93,52.31-16.22,90.12-19.66,9.77-.89,22.81-7.78,28.29-8.05,29.46-1.46,60.42-.72,89.77-5.85,6.35-1.11,10.4-10.47,16.86-.78l-3.74,47.73c8.28,43.34-12.6,90.33-11.97,131.98.09,5.71,2.68,15.57,6.02,20.26,8.39,5.22,19.04-19.43,20.67-25.51,4.97-18.49.53-48.24,1.26-68.72,3.74-104.24,14.37-209.69,22.15-313.85,2.87-38.36-9.19-96.15-12.03-136.1-2.42-34.05,1.34-62.53-3.86-98.12-2.33-15.96,4.07-11.79,5.53-16.08s2.99-36.63,2.19-41.67c-.68-4.32-5.49-7.44-4.02-13.81l16.12-3.3ZM1351.5,1144.67c2.77-27.27,1.74-55.57-2.23-82.74-.75-5.12-.93-14.88-5.73-17.25l2.01,68.97,5.94,31.02ZM1249.76,1430.47c-8.71-40.13,6.93-81.16,9.77-120.82,1.17-16.37,3.02-50.55,1.75-66.12-.3-3.74-1-11.21-4.99-12.57-14.15-2.45-28.09,4.52-41.75,5.68-14.85,1.27-36.92-6.88-38.99,11-3.57,30.97.84,63.38.14,94.09-.21,9.37-10.4,38.46-1.08,42.92,4.61,1.19,2.52-4.53,6.18-5.75,15.44-5.16,13.73,23.57,18.36,33.2s18.82,11.41,8.42,24.55c27.41-9.03,49.86-3.24,75.97,6-8.25-10.25-21.28-12.89-33.78-12.19ZM1165.59,1276.68v-31c0-.39-2.45-7.06-3.12-7.13l-18.87,6.15,21.99,31.98ZM1155.59,1380.69c-5.16.4-13.46-2.26-15.98,3.97,4.37-1.29,17.58,3.69,15.98-3.97ZM1183.58,1402.67l-5.97-11.98-.05,10.81,6.02,1.17ZM1147.59,1394.69l-13.98,3.97c4.23-1.11,15.64,3.45,13.98-3.97ZM1141.59,1412.69c-12.38-.67-23.81-.99-29.96-13.18l-2.65-.57c-5.47,2.09-25.6,22.66-21.36,27.73,8.04.28,7.19-12.24,15.98-9.97l-6.01,13.97c16.25,4.95,38.37-.57,43.98-17.98ZM1175.59,1424.7c-8.07-.41-17.05,1.46-24.57,4.39-2.13.83-12.74,5.61-11.39,8.56,4.15,9.05,33.03-4.92,35.96-12.95ZM1075.64,1452.67c8.58.97,15.25-6.48,21.94-10.99.32-6.53-27.72-.63-21.94,10.99ZM1221.56,1442.69c-25.24,2.16-45.65,30.63-48.6,54.43-.22,1.76-2.14,4.8,1.66,5.55,2.81.56,34.03-30.76,42.63-30.3l4.31-29.68ZM1238.99,1443.03c-8.69,1.78-16,14.91-8.44,21.6,3.24-3.94,12.77-5.2,14.62-9.32,3-6.66,3.26-14.21-6.19-12.27ZM1291.53,1480.67c3.35-3.32-10.54-14.35-13.23-15.74-14.27-7.38-36.42,4.53-48.69,12.75l7.43,4.54,54.5-1.55ZM1233.56,1496.65l-14.62-13.71-25.36,19.72,39.98-6Z"/><path d="M273.94,342.68c-23.59,15.34-46.51,34.3-73.5,43.45-23.36,7.93-58.39,14.25-66.76-16.12-5.58-20.23-1.85-29.37,7.99-46.68,20.18-35.48,75.44-100.46,121.78-81.15,3.42,1.43,33.21,27.61,35.91,31.05,3.63,4.63.76,11.47,5.58,15.4,24.63-28.78,62.71-75.5,104.83-48.83,14.22,9,21.36,22.57,25.25,38.74,11.95,49.75,13.06,91.57-16.67,135.58-16.86,24.97-42.03,56.62-73.64,60.33-24.24,2.84-34.1-4.85-48.7-22.84-23.9-29.46-35.23-72.43-22.07-108.94ZM310.71,445.86c14.06,13.6,19.46,17.1,40.22,14.82,27.78-3.04,62.02-53.25,72.43-77.54,12.2-28.44,7.32-77.66-4.5-106.44-12.99-31.65-37.6-38.4-67.55-21.64-26.05,14.57-63.75,71.4-65.02,101.19-.23,5.41,5.84,8.87,3.49,15.2-2.11,5.7-8.96-2.44-7.78,12.15,1.8,22.14,12.84,46.91,28.71,62.26ZM233.53,253.24c-28.05,3.14-67.35,46.97-81.17,70.78-8.44,14.53-13.56,41.7,3.82,51.48,25.59,14.39,84.64-19.09,105.62-36,24.04-19.38,40.34-37.8,16.11-65.78-12.78-14.76-24.3-22.73-44.38-20.49Z"/><path d="M1482.07,716.05c3.56,2.85,13.49,3.97,13.5,9.59.01,5.32-7.45,8.85-12.14,6.16-29.37-15.94-56.52-41.39-86.59-55.47-7.47-3.5-16.65-9.2-25.35-6.64,8.68,10.19,18.5,18.53,26.84,29.15,8.22,10.48,15.22,24.15,23.19,34.8,22.78,30.45,46.1,60.62,68.94,91.05,3.18,6.42-.28,11.76-7.58,9.65-22.45-18.15-43.05-38.38-64.42-57.63-17.49-15.76-37.96-30.33-53.75-48.23-.82-.92-3.55-5.29-3.18-5.77l8-3.19,35.98,34.15-3.98,3.96c5.54,9.28,9.6,6.56,16.02,8.36s10.1,14.87,14.86,18.76c5.96,4.86,17.45,4.08,22.09,15.89,3.43-7.28-.73-13.81-4.19-19.8-15.25-26.37-59.36-84.17-81.84-104.13-6.62-5.88-21.99-10.45-18.78-20.78,2.87-9.24,30.81,1.81,37.19,4.37,15.47,6.21,29.4,17.53,44.62,22.34-7.04-5.68-42.26-43.57-10.53-32.43,17.81,6.25,44.28,52.37,61.11,65.83Z"/><path d="M1333.26,758.93l31.21,95.78,15.01,39.96-8.99-5.99c-2.84,8.27,7.18,17.63,9.69,24,27.02,68.56,65.26,199.36,69.27,273.01.47,8.63,2.86,27.62-9.33,28.68-5.73.5-16.53-21.25-19-26.34-23.28-47.78-39.42-101.96-50.11-153.87-.86-4.19-4.5-8.46-5.13-13.03-.46-3.35-.43-13,3.6-14.45.69,5.92,2.26,11.71,3.46,17.54,4.67,22.62,11.53,49.65,19.18,72.81,11.16,33.79,27.9,66.76,43.34,98.67,4.07,2.9,5.9-20.54,5.8-23.8-.63-20.32-10.12-59.92-14.76-81.25-20.64-94.8-58.61-189.93-86.34-283.62-4.98-16.83-14.82-31.47-18.63-48.35l11.73.24ZM1367.53,884.67c8.43-4.28,2.48-12.95-4-15.99l4,15.99Z"/><path d="M1484.16,1125.97c-12.27-12.53-28.38-36.44-37.03-51.95-9.3-16.68-30.62-59.73-35.17-76.82-1.09-4.1-.42-8.38-.46-12.52,12.03,7.46,10.72,22.24,15.58,33.38,7.91,18.11,20.34,42.45,30.76,59.23,9.67,15.58,22.43,33.37,37.58,43.38,3.58-4.79-17.05-59.3-20.44-68.53-11.73-31.98-27.35-63.02-36.04-95.95l-21.45-47.52c8.56,7.41,14.07,21.48,18.94,32.03,20.95,45.36,46.77,108.69,61.96,156.01,2.2,6.86,10.44,33.12,8.11,37.91-4.74,9.72-17.88-4.08-22.35-8.66Z"/><path d="M73.58,583.1c14.82-3.64,26.46,15.2,15.65,27.77-2.12,2.46-13.2,7.63-16.18,7.66-14.74.12-16.07-31.35.53-35.42Z"/><path d="M190.48,646.19c-3.37-3.91-2.98-17.49.94-21.62,13.35-14.07,33.81-.06,24.17,16.72-4.65,8.09-18.76,12.28-25.11,4.9Z"/><path d="M1358.51,968.72c2.79.04,4.8,15.49,5.22,18.77.18,1.39,2.88,7.35-1.23,7.15-3.16-.16-9.82-26.01-4-25.92Z"/><path d="M1413.47,894.68c-8.75-8.91-13.45-23.95-15.95-35.99l13.72,27.25,2.24,8.74Z"/><path d="M1387.46,912.69l10.03,23.96c-12.23,1.55-5.34-14.85-13.92-21.08l3.88-2.89Z"/><path d="M1345.54,920.69c3.26-.22,3.16,5.03,3.67,7.29.8,3.56,3.2,10.24-.69,12.66-5.56-4.9-2.21-13.53-2.98-19.95Z"/><path d="M1409.47,976.68c-7.47-8.06-7.8-23.42-11.96-33.99,3.27,2.21,5.61,10.17,6.94,14.03,2.02,5.84,4.23,13.8,5.02,19.96Z"/><path d="M1385.49,830.67c-3.2,3.79-8.54-10.23-7.97-11.99l7.97,11.99Z"/><path d="M1413.5,900.69c3.02-3.02,8.52,5.95,2.99,5.95-1.32,0-4.14-4.8-2.99-5.95Z"/><path class="cls-1" d="M320.94,18.72l.98,15.96"/><path d="M693.77,372.68c-6.38-4.06-8.67-12.93-7.96-19.99l7.96,19.99Z"/><polygon points="699.77 386.68 695.8 383.65 698.8 378.69 699.77 386.68"/><path d="M639.79,496.67c-4.6-2.52-6.21-11.23-5.96-15.98,4.4,2.41,5.38,11.51,5.96,15.98Z"/><path d="M395.37,336.13c-1.9,1.91-23.73,14.34-26.39,14.66-37.89,4.46-12.74-59.32.98-65.07,4.42-1.85,26.22-2.29,28.96.94,5.33,6.28,1.16,14.43,1.16,20.81,0,2.95,2.03,6.29,1.94,10.15-.09,3.55-4.39,16.26-6.65,18.52Z"/><path d="M229.45,273.17c13.3-2.29,19.74.75,27.57,11.46,3.55,4.86,7.06,12.17,8.07,17.98,6.28,36.12-81.28,60.8-66.53,9.62,4.38-15.21,13.82-36.11,30.9-39.06ZM229.98,300.7l-7.04,1.93-.93,12.05,7.98-13.98Z"/><line class="cls-1" x1="222" y1="314.68" x2="222.94" y2="302.63"/></svg>