<?xml version="1.0" encoding="UTF-8"?><svg id="Ebene_2" xmlns="http://www.w3.org/2000/svg" viewBox="0 0 847.97 652.21"><g id="Ebene_1-2"><g id="fVj7le.tif"><path d="M557.6,413.56c-2.96.29-3.12,2.93-3.89,5.07-15.28,42.46-36.08,84.96-32.03,131.83,1.66,19.27,9.24,19.44,14.96,33.02,2.91,6.92,6.83,17.46,9.39,24.59,9.77,27.26,8.29,48.79-27.25,43.25-6.72-1.05-11.41-5.68-20.09-6.02-11.79-.45-13.17,5.45-23.99-3.88-16.21-13.96-14.76-27.26-19.47-44.5-2.32-8.47-8.18-16.78-10.56-25.42-11.82-42.81,7.85-74.47,12.79-115.24,1.65-13.6.79-29.11,2.5-43.48,2.58-21.73,10.43-42.71,7.75-65.24-60.46,2.15-119.85-3.45-174.64-30.15-3.9,8.58-13.09,10.78-17.65,18.77-12.84,22.47-32.4,75.09-41.08,100.86-3.64,10.8-10.08,26.51-10.53,37.57-.53,13.21,6.69,68.85,13.11,78.79,5.57,8.62,17.45,14.68,22.56,25.42,2.31,4.85,12.45,31.84,13.43,36.53,8.28,39.51-41.33,39.95-66.42,28.46-9.99-4.57-25.54-20.67-28.75-31.22-2.36-7.72-.77-14.49-2.96-21.03-1.62-4.84-11.25-15.55-14.52-21.46-10.05-18.12-15.33-33.44-15.38-54.61-9.81,18.98-13.95,40.02-16.96,61.03-1.46,10.19,1.92,17.65-3.63,28.36-2.68,5.17-7.78,8.24-11.21,12.77-7.8,10.3-9.92,18.99-25.13,22.91-34.22,8.83-51.83-65.24-40.81-88.86,2.57-5.5,13.29-13.93,14.38-17.6,2.34-7.86.41-24.66,2.91-35.08,1.9-7.94,7.44-14.43,9.04-20.94,8.25-33.56-4.3-91.63,15.62-118.33,4.36-5.84,11-9.86,14.81-16.15-10.78-.04-18.81,17.66-26.02,20.94-5.97,2.71-13.29-.46-18.63,1.36-6.06,2.06-11.34,20.88-29.82,17.25-20.93-4.11-17.89-30.68-22.02-46.01-1.19-4.41-5.91-8.47-6.97-15.03-2.6-16.02,7.16-20.91,13.23-33.79,8.74-18.55,9.95-37.84,29.6-50.37,8.67-5.53,22.18-7.88,30.57-13.41,29.55-19.45,36.04-75.37,58.06-103.87,27.77-35.96,101.69-52.45,144.99-49.05,22.82,1.79,49.19,13.25,72.4,17.55,34.86,6.47,80.87,12.43,115.31,4.4,8.54-1.99,6.96-12.16,17.08-16.9,14.34-6.71,27.04,1.04,42.58-7.4,10.99-5.97,11.3-14.55,20.41-21.57,4.07-3.14,8.95-4.26,12.81-7.18,14-10.57,19.7-21.18,38.99-18.64,6.7.88,13.46,5.77,20.11,5.83,20.25.19,57.38-9.62,80.01-11.98,6.95-.73,15.52,1.16,21.92-.06,4.09-.78,14.21-10.83,22.48-13.5,17.89-5.76,26.84.9,42.21,8.85,3.84,1.98,14.31,10.05,15.73,10.42,7.33,1.93,17.75-12.65,35.36-5.53,19.08,7.71,14.83,29.96,7.56,45.15-3.99,8.34-22.92,33.11-23.98,38.09-.97,4.54,7.77,21.95,7.44,31.34-.55,15.3-14.85,28.15-15.79,38.35-1.72,18.51,3.94,46.45,1.95,67.75-3.43,36.65-44.2,59.5-76.62,40.72-22.41-12.98-20.92-54.11-42-69.53-2.93.52-39.68,38.09-42.15,41.93-7.17,11.12-9.14,31.39-15.33,44.65-3.38,7.24-20.91,28.49-21.32,30.51-1.79,8.86,26.34,42.34,31.27,54,11.55,27.36,3.67,48.61,4.22,75.77.5,24.46,8.56,48.91,8.15,73.97-.51,30.7-2.02,63.5-6.25,93.71-1.73,12.34-11.89,23.27-24.8,23.34-24.07.13-56.65-37.35-57.13-61.13-.26-12.77,6.62-21.75,7.21-29.96.35-4.9-2.99-12.03-3.14-17.98-.63-25.37,1.98-53.12.05-78.02-1.52-19.54-8.71-27.9-15.99-45ZM119.91,327.59c13.24-12.72,20.03-36.87,11.95-53.97-12.97,13.6-4.81,36.92-11.95,53.97ZM313.77,301.62l-7.98.97,4.96,3,3.03-3.97Z"/></g></g></svg>