<?xml version="1.0" encoding="UTF-8"?><svg id="Ebene_2" xmlns="http://www.w3.org/2000/svg" viewBox="0 0 748.91 629.63"><g id="Ebene_1-2"><g id="fVj7le.tif"><path d="M506.96,0c23.31,13.53,6.79,40.18,14,61.97,26.49-7.44,32.81-69.93,65.87-46.89,18.17,12.66,12.97,74.58,9.19,94.99-2.1,11.33-6.3,21.98-10.69,32.52.38,2.13,20.79,33.3,23.58,36.33,16.25,17.67,34.96,15.4,36.07,47.94.44,12.91-5.23,16.72,3.04,28.9,13.94,20.53,40.89,53.09,57.8,72.14,18.96,21.36,47.55,35.34,42.51,68.47-1.5,9.89-8.28,17.28-10.9,25.06-8.93,26.52-2.11,38.37-28.76,59.2-34.09,26.66-79.08,38.97-108.58-1-4.02-5.45-6.2-13.31-9.09-16.9-6.14-7.61-54.68-22.99-67.38-28.57-26.28-11.53-18.1-11.75-49.6-14.37-5.09-.42-17.79-5.11-21.02-3.09-15.54,31.31-27.61,64.63-38.02,98.05-9.21,29.55-15.67,72.66-26.95,98.99-10.41,24.31-39.74,14.72-59.81,9.86-90.47-21.93-177.98-91.52-221.42-173.36-12.5-.99-23.81,2.26-36.66,1.64-30.91-1.49-91.83-20.66-55.39-59.03-9.77-15.33-20.57-27.09-11.07-45.65,11.32-22.11,36.72-1.05,53.54-16.36-25.32-.17-36.41-17.98-25.44-41.44,2.44-5.22,14.9-19.04,15.21-20.82.25-1.43-5.4-10.45-5.55-15.9-.52-18.59,18.46-30.58,33.64-36.99-14.85-37.85,15.35-46.77,45.86-52.04.65-21.53,15.27-37.83,37.06-28.07,3-.71,6.34-11,9.17-14.65s15.42-13.07,15.79-14.31c1.08-3.63-4.67-12.06-3.76-19.49,3.71-30.39,53.48-28.85,74.71-19.42,4.84-1.14,11.88-31.42,32.2-31.37,29.49.07,14.34,37.27,52.05,35.69,10.44-.44,37.08.77,43.42-.52,8.22-1.67,18.13-11.11,27.85-14.15,8.79-2.75,18.12-3.44,27.28-3.71,10.2-24.59,24.96-43.79,50.27-53.67h19.99ZM273.09,155.93v-7.98s-1.97,0-1.97,0c.32,3.83.37,6.77-4,6.02v1.95s5.97.01,5.97.01ZM351.04,185.92v-7.98s-1.97,0-1.97,0c.32,3.83.37,6.77-4,6.02v1.95s5.97.01,5.97.01ZM109.18,197.95l-9.98-2c1.27,4.6,6.34,4.24,9.98,3.96v-1.96ZM69.21,429.85h-11.97s0,1.97,0,1.97l11.97,2.01v-3.98Z"/></g></g></svg>