<?xml version="1.0" encoding="UTF-8"?><svg id="Ebene_2" xmlns="http://www.w3.org/2000/svg" viewBox="0 0 1628.55 909.12"><g id="Ebene_1-2"><g id="fVj7le.tif"><path d="M949.12,909.12c-28.97-12.65-94.37-40.29-95.78-77.15-.2-5.23,3.57-8.83.84-14.76-1.7-3.7-20.67-20.48-25.19-22.84-12.95-6.76-39-11.96-54.11-15.85-36.9-9.49-75.76-17.11-113.17-24.75s-84.19-6.54-84.56-60.36c-13.59-4.11-25.98,5.46-39.35,9.23-46.09,12.98-77.21,3.67-121.34,4.4-21.6.36-59.1,26.09-80.26,35.86-13.41,6.2-36.78,10.72-47.41,20.56-5.4,5-9.31,13.35-16.22,19.77-5.13,4.76-12.27,8.24-17.02,12.96-8.66,8.6-18.64,26.84-27.89,34.08-8.69,6.8-23.29,8.34-32,13.98-25.29,16.37-38.71,51.64-77.05,54.91-48.02,4.09-42.61-57.03-33.58-87.59,7.06-23.91,21.88-46.87,47.63-52.32,4.18-9.11,2.53-17.18,7.19-26.8,12.3-25.39,48.82-19.94,72.15-25.8,25.72-6.46,56.83-30.02,73.45-50.48s34.09-71.55,63.1-73.01c14.18-.71,29.84,10.07,43.02-.78,15.49-12.74,20.94-59.79,26.02-79.94,4.58-18.15,11.07-35.84,15.65-53.99-2.14-8.35-45.92-1.94-54.23-.6-76.74,12.43-124.28,66.75-202.35,71.51-23.71,1.45-74.2.87-87.45-22.65-2.92-5.19-2.97-11.25-6.41-15.58-6.73-8.46-29.23-13.86-38.05-27.92-7.41-11.8.24-21.35-1.41-28.5-.59-2.55-19.93-19.02-23.66-24.4-4.63-6.66-15.44-27.34-17.11-34.87-1.34-6.06-1.33-12.61-2.57-18.71,10.35-12.62,16.98-19.19,33.65-12.38,3.19,1.3,14.41,10.57,15.99,8.97-2.96-8.37-3.41-22.84,4.06-28.92,3.36-2.74,8.42-2.29,9.68-3.3.43-.34-3.45-5.66,5.77-7.39,10.95-2.05,35.88,18.62,51.94,21.15,9.13,1.44,46.95-.99,52.08-7.94s-1.68-17.74,15.75-31.21c28.67-22.16,118.87-25.1,151.93-12.71,20.03,7.5,37.16,34.12,54.5,43.45,12.35,6.64,30.47,7.08,44.03,11.94,12.82,4.59,34.96,19.63,47.81,19.97,5.42.14,35.93-17.19,45.76-20.43,53.19-17.56,92.5-7.52,145.36-2.61,36.99,3.43,119.55-2.04,152.93-16.91,29.33-13.06,57.8-34.96,79.87-58.03-13.7-9.27-20.48-17.34-15.06-35.09,4.21-13.77,27.82-15.38,32.94-23.16,2.38-3.61.85-15.19,3.73-22.14,4.59-11.1,19.46-18.04,21.49-22.54.98-2.17-9.46-18.04,3.07-30.86,8.2-8.39,19.75-6.22,25.75-10.23,3.34-2.23,7.19-15.21,13.38-20.61,11.34-9.89,25.65-6.91,35.46-12.52,6.03-3.45,9.46-14.2,19.07-18.91,12.74-6.24,22.88-3.1,34.99-4.99,3.21-.5,21.79-16.98,23.97-20.01,6.9-9.58,1.16-20.26,18.65-27.32,20.96-8.47,29.55,12.21,45.05,19.86,12.63,6.24,27.56,6.02,41.3,5.5,2.07-38.75,47.39-26.76,72.01-16.87,32.49,13.04,73.89,54.57,86.94,86.97,4.07,10.11,4.89,24.74,9.3,32.68,25.59,46.12,77.72,72.73,99.39,120.51,23.3,51.38-13.1,89.34-64.59,92.74-18.12,1.2-29.92-4.66-45.09-13.02-17.64-9.71-42.83-35.55-56.78-41.17-8.87-3.57-23.18-4.36-33.15-6.83-17.2-4.25-29.69-15.15-47.87-3.94-24.23,14.94-28.86,80.48-41.17,105.88,2.52,12.4,10.78,22.15,15.15,33.95,5.38,14.52,5.89,29.66,10.5,43.48,4.84,14.52,17.71,27.98,24.81,41.67,14.61-3.71,30.82-2.49,45.35-4.39,35.27-4.62,66.01-20.53,98.14,6.3,27.16,22.67,31.58,63,23.38,95.54,7.92,6.66,17.36,5.77,26.07,8.93,28.1,10.2,40.43,30.33,64.92,45.02,27.37,16.42,71.48,26.08,93.85,47.08,3.6,3.38,27.39,35.66,28.26,38.71,1.58,5.51-.38,11.92.45,17.54,4.74,32.03,8.13,54.8-9.6,84.42-25.01,41.78-77.03-5.71-85.38-37.39-6.57-24.92-3.86-32.1-22.14-53.82-26.21-31.13-62.19-23.95-96.11-39.81-19.09-8.92-32.62-25.59-53.71-28.48l-2.55.48c-20.35,28.43-44.33,99.3-82.21,106.75-8.25,1.62-12.19-1.44-18.55-.77-11.78,1.24-26.3,13.18-39,15.15-28.52,4.44-60.55,1.27-60.26-34.29.27-32.76,43.29-75.03,72.38-85.53,11.57-4.18,26.85-.73,20.15-17.87-8.04-1.04-15.16-7.3-22.68-8.89-9.92-2.1-47.1.19-58.84,1.36-24.26,2.41-47.82,18.23-73.32,12.87-8.72-1.83-22.05-12.59-28.77-12.84-10.42-.38-33.07,6.82-46.09,7.7-87.66,5.93-146.68-33.24-225.87-41.94-6.86-.75-31.93-4.39-34.97,1.45-1.18,2.27-11.77,46.45-11.89,49.81-.1,2.82-.11,3.55,1.89,5.71,3.62,3.91,40.83,17.18,48.47,19.5,62.12,18.92,163.13,18.55,160.47,107.4,10.81,9.26,19.3,19.31,28.08,29.89,6.33,7.64,12.08,8.08,14.38,21.59,2.22,13.03-2.67,15.39-3.51,23.7-.63,6.16,3.74,12.88-3.8,19.53-3.64,3.21-17.37-.22-22.18,5.28h-19.99ZM69.61,327.35c-2.91-2.79-3.65.23-4,2.99-.93,7.32.79,15.45,8.01,18.99,3.76-8.36-2.22-14.1-4.01-21.98ZM25.66,369.31l-3.99-11.14c-7.45-1.3-11.65,3.37-4.98,9.14l2.96-3.98,6.02,5.98Z"/></g></g></svg>