<?xml version="1.0" encoding="UTF-8"?><svg id="Ebene_2" xmlns="http://www.w3.org/2000/svg" viewBox="0 0 961.41 793.66"><g id="Ebene_1-2"><g id="fVj7le.tif"><path d="M265.67,13.13c5.21,3.65,15.49,3.97,22.1,8.93,3.75,2.82,6.04,8.47,8.62,9.37,11.15,3.87,29.53.64,41.21,10.24,5.88,4.84,5.07,18.02,7.93,21.59.9,1.12,20.88,10.62,25.3,13.68,12.4,8.59,22.02,15.24,20.23,31.84-.72,6.68-6.59,12.49-5.76,17.52.24,1.48,11.66,24.32,13.3,26.82,12.57,19.05,38.71,13.12,36.43,41.56-.46,5.75-4.05,10.59-4.09,16s3.77,11.11,3.73,16.06c-.02,3.6-2.78,6.75-2.85,9.96s6.54,16.73,8.5,17.13c51.45-6.48,106.65-39.5,158.94-27.53,21.57,4.94,25.19,18.31,48.27,9.11,36.17-14.41,54.86-37.6,98.31-33.77,16.35,1.44,49.42,14.27,53.96,32,1.87,7.32-.83,14.69,2.84,21.15,1.93,3.4,32.49,27.99,36.62,29.35,27.89,9.17,39.4-20.05,61.51-13.53,17.95,5.29,14.33,26.96,9.89,41.04,24.94.05,72.83,44.69,39.1,64.1-10.95,6.3-24.36-3.64-35.06.94-1.17.5-18.02,16.26-18.55,17.41-6.11,13.21,4.58,24.63-17,34.98-26.64,12.78-60.85,3.97-88.51-2.36-14.07-3.22-28.04-6.94-41.28-12.8l-4.43,2.98c.33,18.42,17.94,39.34,33.17,48.36,6.88,4.08,15.58,5.63,22.04,9.94,18.55,12.37,21.93,42.81,30.83,61.13,4.44,9.14,13.13,16.41,16.37,25.61,9.89,28.17,10.42,67.2,9.46,96.63-.91,28-20.27,37.56-45.62,40.38-30,3.34-49.63-4.89-46.2-38.23s4.08-44.33-8.18-78.21-28.59-47.32-57.28-68.57c-18.48-13.69-38.56-25.2-57.71-37.87-2.59.19-25.89,27.77-26.46,30.75-2.76,14.25,21.88,42.66,23.44,61.77,3.23,39.47-24.09,46.82-36.29,75.59-8.37,19.74-1.21,29.52-19.56,46.41-3.51,3.23-10.07,4.89-12.19,7.8s-1.72,6.94-3.8,10.2c-2.82,4.41-9.03,6.4-12.06,9.93-16.82,19.59-18.06,27.98-46.42,35.54-24.94,6.65-60.69,5.67-61.37-27.77-.59-28.85,66.31-85.3,82.64-114.9,7.43-13.46,17.08-36.98,9.54-51.22-9.03-17.07-24.84-31.47-26.84-53.11-5.83-4.22-7.74-21.2-14.39-21.41-4.02-.13-24.38,9.05-31.12,10.95-37.72,10.62-74.9,13.63-113.46,19.47-8.22,23.05-23.02,45.57-29.88,69.07-5.25,17.95-4.15,35.55-11.04,52.93-4.68,11.8-16.08,25.14-18.63,37.35-2.07,9.92-1.39,22.49-3.12,32.87-1.54,9.29-6.03,43.35-8.32,48.71-.43,1.01-12.54,14.84-14.37,16.55-17.76,16.48-46.17,21.03-69.6,19.98-3.82-4.51-8.4-11.89-13.47-14.95-10.76-6.51-15.75.66-13.95-20.07,2.29-26.43,29.05-45.82,40.37-67.62,8.61-16.58,12.21-56.6,13.61-76.35,1.61-22.64.41-48.1,1.11-71.05l-5.53-1.53-73.45,22.75c-.49,2.33,11.24,23.23,13.93,25.86,7.02,6.88,20.28,8.48,28.98,14.99,31.97,23.91,28.75,95.49-21.5,87.48-50.52-8.05-86.85-70.41-101.46-114.44-22.25-67.03,20.79-76.26,63.83-108.17,12.5-9.27,23.15-21.07,35.86-30.16-2.95-26.34-7.36-50.89-5.79-77.71,2.63-44.89,24.02-82.92,8.64-128.43-2.66-7.88-3.83-14.9-13.44-14.52-12.42.49-37.42,2.58-49.2,4.97-13.14,2.67-27.95,16.93-43.36,20.6C29.18,253.41-.43,236.69,0,199.04c.39-33.34,45.07-66.88,69.15-88.33,24.43-21.75,44.03-37.12,66.97-60.97,31.4-32.66,40.16-22.68,77.5-36.44,12.41-4.57,25.65-17.4,38.95-11.99,5.48,2.23,9.8,9.51,13.1,11.82Z"/></g></g></svg>