<?xml version="1.0" encoding="UTF-8"?><svg id="Ebene_2" xmlns="http://www.w3.org/2000/svg" viewBox="0 0 553.93 460.38"><g id="Ebene_1-2"><g id="fVj7le.tif"><path d="M221.79,12.53c5.84,5.59,12.58,21.73,17.58,25.39,1.57,1.15,34.11,13.02,36.55,13.42,3.7.62,35.24,2.65,37.06,2.11,7.1-2.11,9.17-12.65,12.84-15.74,16.44-13.81,35.01-2.45,45.8,11.63,17.92-2.08,38.63-6.54,47.11,13.1,5.62,13.02,5.92,24.72,18.65,35.33,3.41,2.84,13.33,3.06,20.44,7.54s12.87,15,16.61,17.37c2.76,1.75,7.15,1.4,10.64,3.35,14.36,8.06,15.29,24.17,23.59,36.38,4.43,6.51,12.6,11.19,14.69,19.3,1.84,7.17.02,13.77,1.39,20.6s8.72,14.23,9.46,22.69c.56,6.37-2.63,11.3-1.75,17.48,3.74,4.24,7.97,2.93,12.95,7.13,8.22,6.94,9.94,15.77,7.49,25.75-1.39,5.64-8.48,14.49-8.55,17.34-.22,8.8,10.75,14.65-1.28,28.79-16.52,19.43-50.24,15.26-72.73,17.22-14.05,16.07-24.75,40.34-38.03,55.93-4.32,5.07-40.74,33.78-45.41,34.72-3.94.79-8.92-1.47-10.65-.69-2.76,1.24-3.59,7.45-7.19,8.67-3.24,1.1-7.74-.3-11.22.77-13.05,4-26.47,11.7-40.38,15.59-20.1,5.62-50.61,14.91-61.8-8.23-9.53-19.7-15.1-61.44-22.65-85.3-2.04-6.44-16.22-48.13-18.48-49.49-8.59-.83-22.48-2.54-30.54-.48-4.98,1.27-54.99,22.48-58.85,25.11-13.34,9.08-20.14,28.58-40.05,31.91-23.79,3.97-62.96-18.22-72.52-40.46-2.24-5.21-11.03-33.15-11.83-38.15-1.86-11.57-.29-23.76,6.21-33.54,5.88-8.84,15.4-13.55,21.64-20.34,8.17-8.88,45.38-50.65,47.54-58.41,1.77-6.37.84-16.26,3-22.99,6.56-20.43,39.84-28.75,39.28-52.21-.61-25.63-11.76-46.71-3.27-75.72,4.73-16.14,16.96-9.8,19.42-23.56h1.95c1.7,9.08,12.7,9.9,18.83,16.17,5.33,5.46,7.79,15.78,15.16,19.8-2.3-35.14,24.81-50.67,51.3-25.3Z"/></g></g></svg>