<?xml version="1.0" encoding="UTF-8"?><svg id="Ebene_2" xmlns="http://www.w3.org/2000/svg" viewBox="0 0 489.84 507.1"><g id="Ebene_1-2"><g id="fVj7le.tif"><path d="M0,210.93c6.36-9.41,7.17-18.81,15.95-27.03,6.28-5.88,13.42-6.9,19.05-10.94,32.06-22.97,55.95-55.2,85.98-79.94,6.85-5.64,25.04-15.79,33.57-20.4,28.84-15.57,109.51-46.94,140.49-47.41,15.65-.24,27.83,2.89,45.3-.67,10.54-2.14,25.79-18.75,36.87-21.08s19.39,3.61,25.24,3.03c4.8-.48,10.36-7.06,17.53-6.47,42.44,3.53,22.01,68.26,6.19,89.57,22.65,49.66,28.08,102.28,46.05,153.81,6.22,17.82,16.78,32.41,17.57,52.4.99,25.09-14.39,66.32-38.72,77.4-9.05,4.12-37.65,4.69-48.09,3.43-16.19-1.95-27.05-11.45-34.28-25.69-12.8-25.21-7.39-25.93-31.96-46-13.6-11.11-29.75-19.06-41.92-32.02-43.37,45.98-49.11,122.2-49.07,182.99,0,7.42,2.46,13.88,2.19,21.94-1.68,51.04-47.04,22.62-72.66,8.56-10.26-5.63-22.52-13.18-32.41-19.56-6.32-4.08-37.18-23.31-36.98-29,.1-2.84,3.91-4.87,3.72-7.7-.26-3.96-6.46-6.73-5.66-11.32l5.96,4,1.98-5-3.93-2.98-.99,4.01c-10.91-3.33-10.78-13.49-14.95-19.08-9.18-12.3-22.12-24.09-30.88-37.09-10.86-16.12-18.28-34.51-27.41-51.57l-17.72,3.78L0,248.91v-37.99Z"/></g></g></svg>